<svg xmlns="http://www.w3.org/2000/svg" width="550" height="550"><g><g><path d="M549.202 275.015c.422-79.995-36.484-159.16-98.107-210.23-61.305-51.788-146.28-74.613-225.16-59.413-84.018 14.42-159.21 71.149-196.52 147.77-34.7 68.851-38.064 152.55-8.836 223.94 30.519 78.025 99.269 139.71 180.07 161.78 77.74 22.602 165.12 7.721 231.25-38.999 66.603-45.839 110.71-122.8 116.39-203.53.72-6.532.907-13.183.914-19.804" fill="#fff"/><path d="M242.572 1.709l-1.238.286h.635l.603-.286zm-1.238.286h-1.206l-.54.286 1.746-.286zm5.491-.286l-1.809.286h.603l-1.523.317.286-.317-.984.222-.222-.222-.793.317h-.127l-1.809.286 1.523-.286-3.682.603.635-.317 1.523-.286-2.444.286-1.333.159 1.016-.159 1.714-.286h-1.714l-.603.286h-.9199999999999999l-.286.159-.317.032v-.19l-.571.317h-1.27l-.444.254.952-.159-1.111.222.127-.063-.254.032-.127.032h-.952l-1.238.286h-.603l-1.523.317h.9199999999999999l1.841-.317.984-.19-.222.095v.032h-.032l-.444.063h-.28600000000000003l-.095.063h-.032l-1.714.254-1.523.286.92-.286-1.047.19.444-.19h-.317l-1.841.286h.317l-.317.159.92-.159h.317l-1.396.254.159-.095-.889.159h.317l-1.428.254.476-.254-1.523.317-1.27.286h-.254l-.19.095-1.016.222-.064.032-1.143.254h-.635l-.222.095-2.507.54h.317l-.92.286h-.317l-.286.317h-.635l-1.809.286-1.238.317-1.523.317-.603.286 1.523-.286-.92.286 2.158-.603-.635.317-.889.286-4.888 1.841-2.444.286h1.238l-5.205 1.523-1.809.92h-.603l-2.158.603 1.428-.222h.032l.381-.063-.762.222-.127.032-2.475.666v.286l1.523-.603h.921l-2.126.603h1.206l-2.126.317.317.286h-.317l-2.126 1.238.317-.92-1.238.317-1.523.889h1.238l-3.967 1.523h.603l-1.428.286-1.619.952-.603-.317-2.126.603 2.412-.286-1.523.286-.603.635-2.888.603 2.285-.603-.92.286 1.523-.286-.603-.635-.317.635-.286-.317-2.507 1.079-.54.127 1.206.317-2.444.317v.603l-1.809.286.222.222 2.825-.825v.317l-4.285 1.206-2.126.603-1.079.825-.444.095h.603l-1.777.889-.952.349-1.841 1.206 3.047-1.206 1.841-.92-2.444 1.809v-.603l-.286.317-2.158.603h1.238l-1.523.317v.286l-1.523.317.603.286-1.206.317h.603l-.92.317.317.286-2.158.92 1.841-.603-2.729 1.206v.317l-1.523.92 1.206-.317-1.841.603 1.523-.286-1.523.603h.317l-.92.286h.92l-1.523.317h.92l-1.523 1.206 3.967-.889-2.761 1.206 1.841-.603-2.444.92 1.523-.317-1.206.92 1.206-.603-2.126 1.523 1.809-.92.317.603.317-1.206h1.809v-.635l1.841-.603h.286v-.603l1.523-.317-.286-.286h1.523l-.603-.317 1.809-.603.92-.92.317.317.286-.92 1.841-.317 1.206-.889v.603l.92-.92.317.317v-.317l1.523-.317v-.603l.603.317 1.523-.92-.603-.317h1.523l2.126-1.809.286.286 1.841-.603.603-.286 2.126-.317 3.364-1.523.317.317-1.079.444-.444.444 2.729-.603.603-.603.92.317 6.697-2.761 2.126-.286 1.841-1.238-.92.92h2.126l.92-.603v.286l5.173-.603 9.14-2.444h.635l-3.047-.603-3.364.603-.603.317-.317-.317h-.603l3.65-.603h-3.046l3.65-1.206.635.286 2.412-.286-2.412-.603h1.809l-.286-.635 2.126.92-1.238 1.523 2.444-.603-1.206.603h1.206l.603-.92 1.841-.603h-.92l1.523-.603-1.809.317 1.809-.635-.92-.603-1.809.603.92-.603h1.206v-.603l-2.126.603v-.603l3.332-.317h-2.412l1.523-.286v-.317l.286.317 2.126-.317.317-.603v.603l.984-.222.54.54 2.729-.317 1.238-.286-.92-.317-1.523.317.603-.317 2.126-.92 1.238.603 1.523-.286h-.92l-.603-.317 1.523-.603h.286l-.603-.317 1.238.317h.286l1.841-.603h-.603l-1.238-.317 2.444-.286h-1.523l.603-.635h4.284l1.206-.603h-.92l-.603-.286h2.126l-.286-.317h-.317l-1.841.317 1.523-.635 3.682-.603 4.57-.92h-2.761l.92-.286h1.5230000000000001l.095-.095 2.634-.222h-2.412l4.253-.286 3.047-.635h-1.841l-2.126.317h-1.206l-5.173.603 5.776-.92-4.57.317 2.729-.317h-4.253l1.841-.286h3.047l3.332-.317h-1.809l1.523-.286-5.491.286 2.444-.286-3.364.286.603-.286zm-23.771 9.426l-1.809.317 2.444.286-.635-.603zm-12.79 4.57l3.65-.286.635-.635-4.285.92zm-25.739 7.776l.159-.159-.286.222zm-.127.063l-.952.381v.317l.952-.698zm-11.679-.92l-.286.095h.349l-.064-.095zm-.286.095h-.54l-.222.222zm-.762.222l-1.301.381 1.206-.286zm144.31-20.026l3.967.92 1.523.286-.286-.286-2.158-.317-3.047-.603zm5.491 1.206h-.92l1.841.317h.317l-.92-.317h-.317zm-22.534-.889l-.603.603 1.809-.317-1.206-.286zm7.014 0l-.92.286h-.317l1.523.317-.286-.603zm-28.945.286v.317h-1.523l.889.603 1.238-.317h1.523l-1.523.317 3.332.317 2.444-.635-2.126-.286h-1.206l-.317-.317-.317.603-1.809-.254v-.032h-.317l-.286-.317zm44.464.317l1.841.603 3.332.603h.92l-.92-.286h-.413l-1.301-.286-.095-.032h-.064l-1.46-.317-1.523-.286.92.286-1.238-.286zm-49.034.286l-3.047.317 1.809 1.206 2.126-.603v.317l1.238-.317-1.523-.92-.603.635-1.523-.317 1.523-.317zm2.126.92l.92.317-3.967.603.286.317 3.047-.317-2.126.317 1.238.286-2.158-.286 3.047 1.206 2.158-2.126h.889l1.238-.317-1.523-.286-1.523-.317-.603.317-.92-.635v.92zm3.332.317l.92.286.603-.286zm.92.286l.317.92 1.523-.286.286.286 1.238-.286-1.523-.635h-1.841zm46.622-1.206l1.809.444.159.032 4.443 1.047-2.158-.603-1.523-.317-2.729-.603zm7.934 1.841l5.459 1.206h-.286l1.111.317h-.19l.571.095.635.19-1.206-.286h-.317l.92.286 1.206.92 2.126.603-1.523-.286 5.205 1.523-2.444.286 4.856 1.523 3.65.92h-.603l-1.428-.222-.095-.095h-.603l-2.444-.603v.317l1.841.603h-1.65l-4.761-1.523 2.761.92 1.523 1.206 3.967 1.238 2.126.889 2.729 1.523 1.841-.286 2.729.603 3.047 1.206 1.238.92 2.126.603-2.444-.603-5.173-2.126-.92.317 3.967 1.809 2.729 3.047-4.856-.92 2.126-.603-3.65-2.729-3.047-.92-3.682-1.841-3.332-1.206-3.047-.92-3.65-1.809-1.841-.317h-1.841l3.682 1.841.286.889 3.65 1.523 1.841.92h1.206l3.364.92 1.841 1.523-6.728-1.841h1.238l-8.855-1.206v.603l3.682 1.238h-1.238l.317.286.603.603-3.047-1.206-.92.603h-2.729l.603.92h-1.206l-1.238.92 5.173 3.967h3.364l-3.364.286-5.459-4.253 1.523-.92h-1.238l-1.206-1.206.92-.317h-.92l-.317 1.206-.92-.603-3.935 1.238 1.523.603h-1.841l1.206 1.206-2.412.317-3.047-1.238 1.809-.603-.92-.603-6.094-.92 2.158.603 4.57 4.285-4.285-.92-1.809.92-.635.603-.286.317 1.206.889 1.841 1.238-.92-.317-3.364-.286-.603.286.317-.603-3.364-.603v.92l3.65.889-.603 1.238-6.094-1.523-2.126-1.841.603-.92-3.967-.889.92-.317-3.967-1.206 14.345 1.809.889-.603 1.238-1.206-3.65-1.523-.635-.317-9.14-2.126h-2.729l-.317.92v-.92h-2.126l-.603-.603h1.841l-2.158-.317-.889.603-1.841-.603-.92.317-1.523-.635-.603-.286 2.729.286.92-.603-3.65-.603-1.206.603.603-.92-1.523-.286-.317 1.206h-.92l-.286-.92-1.523 1.523.603-1.206-2.126-.317-1.238 1.523h-.286l-3.047-.286.603.286.603.635-1.523-.635-1.809 1.238h-.317l.317-.317.286-.92-.603.635-.317.603v-.92l-1.206.317.92.889-2.444-.603-.603 1.523-2.126.317h-.317l.317 1.206-.92-.92-1.238.317.92.317h-1.809l1.809.603-2.729.603 2.126.317-3.967.286.92.317-1.682 1.111-1.047.095.889.603-.889-.286-1.523 1.523 1.809-.317-3.332.92h1.809l-1.809.317.889.603-1.523.286-.286-.603-3.364 2.126h1.8399999999999999l2.126-1.206-1.206 1.523-2.444.317v-.635l-2.761.317v1.523l-1.523-.603 1.238.92-1.46-.286-3.713.286.889.603-.603.603-1.206-.317.603.317-2.444-.317v.635l-.603.889h1.523l-1.841.317h1.523l-1.206.603 3.047-.286.603-.317 1.238.603.603-.92.286.635-1.809.889-.603-.603-3.967.317 1.206.286h-1.523l.603.635 1.238-.317-1.841.92.603.603.92-.603-.92 1.206 4.285-1.523-5.491 2.126.92.92 2.444-.92-2.158 1.238h1.841l-.92.603-1.523-.603-.286 1.206 3.047 1.523 3.047-.286 3.65-2.444h2.126l1.206-2.126.635 3.935 1.206-.286-.603 1.206 1.206-.92-.92 1.523 2.761 3.047-1.238.635.635 2.412h3.65l1.523-1.809h3.047l2.444-3.364-.635-2.729h1.238l-1.841-.317 3.364-.603.286-.92.635.92 1.809-1.206-1.523-.317 2.444-.603-2.729-2.126-1.841-.317 1.206-5.173.92.603 3.967-1.841 1.206-.286 1.841-1.523-1.206-1.841 1.206.317-.317-1.238 1.523.635.317-.92 3.65.286 2.444 1.523-8.22 4.888 2.126 2.729-.603 2.158 2.729.889 1.238-.286-.317 1.206 12.79-2.126.317.92 4.57.92-5.173.286-.317.92-5.491-.603-4.856 1.206.889 2.126h2.158v2.761l-1.841.92-3.047-2.158-2.126.317-1.523 2.729 1.206 4.285h-2.126l1.206-2.126-1.206 1.809-1.523.317v.9199999999999999h1.206l-.889.286-1.841.92 1.206-1.206-2.729.889-2.444-1.523-9.14 2.444-.286 1.238-4.285-2.444-6.094 1.206.92-1.206-2.729.286-1.841-1.523.92-2.126 3.967-2.126-2.158-.603 1.841-2.761-5.491 1.523-2.126 6.411.92-.317.92 1.238-1.523.286 3.047 2.158-3.047-.92-.635 1.523-1.206-.92-2.729.317.889.889-4.253-.286-1.841.92.92 1.206-1.809.92-.92-1.841-2.761 2.761 1.523.889-3.65.317 2.126.603-8.22 1.523-.286 2.126-1.238.635-4.57 2.126-5.491-1.523.635 3.65-4.285.317-.603-1.238-5.491 1.238 1.523.889-1.523-.286.317 1.523 5.491 1.206.603 3.047 2.126.603-1.206 2.158.286.603-3.967 7.014h-17.36l-1.523-1.238-6.094 2.761 1.238 2.412-3.967 7.934-3.967 4.888 2.126-.635-1.809 2.158h1.206l-2.126 5.173 7.617-.92 3.047 4.888 4.856-2.761h8.252l3.332-3.047 2.761-.286 1.206-2.761 2.126-.92.92-.603-.603-.603-.603-.92.603-2.126 1.206-1.206 3.967-3.682 8.537-3.047v-3.332l1.523-1.523 2.729-.92 6.697 1.841 9.775-4.888 4.57 1.523 2.412 5.491 16.154 8.537 1.841 4.57-2.126 3.047 1.523.286 2.126-3.332 2.126-.92-2.444-2.444 1.238-2.729 3.65.603 1.809 1.809.635-1.206-9.14-4.888.603-1.523-4.888-.603-3.967-5.173-3.935-2.126-.635-4.285 4.888-1.206.92 3.364 2.444-1.841 4.57 6.411 3.332.286 2.761 1.841-2.444-.603 6.094 1.809 3.047 2.444-.92 5.173 2.729 2.444 2.761 2.729 1.523-.286-1.523.92 1.523 1.809 7.903.603-.889.92-5.808-1.206-.92 1.523 2.444 3.967 1.523-.92 1.523 2.444.317-1.523 2.444 1.523-2.158-4.285 3.047.317-2.126-1.523 1.841-.603 2.126 1.206v-1.841l-6.094-2.412 1.841-.635-.317-1.523 1.523.92-3.364-4.856 1.238-.635 3.967 2.444-.92-1.523 2.444.92-2.444-2.126 4.856-.92 6.094 1.206-1.809 2.158 4.253-3.364h5.173l-5.459-5.173h-1.238l3.65-3.65v-5.205l.635.92 1.809-.603-.603-3.047.603.603 2.126-1.523.317-1.523 3.65-1.206 1.841 1.206-3.047-.286 1.809.603-.603.603 5.808.317.603 1.206-3.364 1.206h2.126l1.523 2.761 2.158.92 7.617-3.364h-3.682l-3.047-2.729 3.047 3.047-1.809-.317-2.126-1.841 1.523-2.126v1.523l2.126-1.809 9.743-2.158-1.523 2.158-2.729-.317 3.65 2.126-1.238-.603-1.206 3.047-2.729.603 12.79 5.808 5.491 2.412 2.412 3.364-.603 1.523-3.332 1.841h-6.093999999999999l-7.014-1.238-5.808-3.047-5.459.317-6.728 3.332-7.3-.603.603 1.523 2.761.317-3.682.286.317.92h-7.934l-1.809 1.841-.317 1.523 3.364-.317-.603 3.364 1.809.92-1.809.286-.92-1.206-.603 1.523 3.935.92-.889 1.206 2.729 1.523-1.206 1.206 3.935-.286-3.332 1.523 3.967-.92 4.856 2.729h2.761l.286-2.729h2.126l6.728 3.364 4.253-.92 1.841-2.126 2.729.889 2.729-.889-.286 4.57 1.809 4.253-4.253 12.79-8.22 1.238-.92-1.841-3.65-.317-7.331 3.047-8.506-2.412-7.331-.317-1.206-1.841-6.697-.889-.92-1.841-5.491-1.206-6.411 3.047v5.459h-.286l-4.285 2.158-4.57-2.444-8.506-2.126-2.158-3.967-7.3-2.126-4.253.286-8.252-3.65-.603-1.841 4.888-3.935-2.444-3.682 2.444-3.65-2.444 1.523-2.444-2.444-7.014 2.158-5.459-1.238-4.285 1.841-5.173-1.238-10.981 1.841-4.57 2.444-3.332.603-4.57 2.444h-3.047l-.317-1.523-6.379.92-2.158-2.761-1.809.603-4.888 7.014-10.664 5.808-3.332 4.57-.92 5.459-.317.317-2.444 3.047-6.094 4.253-5.459 1.238-3.967 5.491-3.65 2.126-3.047 6.379-4.221 3.428-6.443 9.394-1.523 4.253.889-1.523 1.841 4.253-2.126 3.967.603 7.331-3.65 9.426-4.285 4.285 3.364 3.935-.317 2.444 3.682-.603-3.047 1.206-1.238-.889-.92 3.935h2.158l-2.158.92 3.047.317-1.523 1.206 1.841.317-.603 1.206 4.253-1.206-2.444.92 1.841.889-2.126 1.238.92 1.523 1.206-.603-.603 1.206 1.523-.92.603 4.285 1.841.889 1.809.92-.92 1.523 1.523.603.317 3.967 1.523-.286-2.126.603 3.332 3.332-.286 1.841 5.173 2.729 10.061 9.458 5.173 2.126 6.094-3.047 9.458-1.206 8.823 2.444 9.14-4.285 6.411-2.444 11.267-2.412-1.841 1.206 4.57.317 3.047 2.729 1.523-.92-1.523 1.238 2.126.286-1.523.317.635.92 1.523-.92-1.523 1.809 3.047 4.285 3.332-.317v-1.206l.603 1.206-.286-1.523.92 1.523.603-1.809 1.206 1.206 4.285-.317-.317-1.809 1.523 2.126 1.523-1.206 1.523 3.65 2.444-.603.603 1.206h-1.206l1.809 3.65-3.047 9.14 1.841.317-.317 3.047-1.523-.317 3.047 1.523-2.126.603-.92-1.206-.92 4.888h-2.126l4.57 8.22 10.061 9.743 2.126 6.094 2.444 1.206-2.126.635 5.491 10.949-1.841 3.047 2.126 4.285 2.126 4.856-.889 5.808-5.205 5.459-3.332 11.299.603 9.743 12.505 20.407 2.126 16.44 9.743 15.551 4.253 7.014.317 3.332-1.841 1.238 2.158 5.776 1.523-.92 4.57 3.047 10.346-3.332 8.823.92 8.855-2.444 13.108-9.14 4.253-5.491 1.841-2.126 4.856-3.967 3.967-10.346-.603.889-1.238-1.523 13.425-7.903 1.206-8.537-2.729-7.3.286-3.967.92.92 6.697-4.57 2.761-4.57 13.711-6.411.603-1.206 4.253-6.094-.889-8.855.889-.92-.603-6.697 1.523-3.047-2.729-2.126-1.238-.92v-.286l-1.206-7.934.92-2.126h-1.238l1.841-3.967-3.364-4.57 2.158-6.411 3.65-7.617.92-1.809 3.65-2.126-.92-1.523h2.444l9.743-12.822 10.346-8.22 7.617-9.743 10.061-23.454v-2.761l-.286-1.523 2.126-.603h-1.523l.286-6.379-2.126-.92-4.856 3.047-8.252.92-3.65 2.126-2.729-.92-4.888 2.444-6.379-5.808-2.761.317 3.65-2.126-.603-2.126-10.061-10.061-4.253-1.523-.92-1.523-.92-.92-.286 1.841-6.411-13.711-5.491-3.682-2.412-10.346.889.603-2.412-4.57-5.491-3.967-1.523-4.253h1.206l-3.047-2.444-8.22-14.314-4.57-4.888-1.206-3.935 3.935 5.776 4.57 3.364 1.841-7.331-.92 5.808 2.761.286 10.029 12.187 1.523 3.65 4.57 2.444 3.682 6.094 1.206 5.808 3.65 3.047 3.65 3.047 9.775 13.711.603 6.982 4.856 11.902 6.411-.317 2.126-3.047 11.902-3.047 2.126-2.729 10.346-4.57.603-3.967 8.855-2.444.603-3.65 3.364-.603.603-3.65 3.332-1.238-1.206-5.491.92-1.809 1.206.92 2.126-7.934-5.173-5.776-5.491-1.841-2.729-2.444-2.444-4.856-.286-3.047-5.491 9.426-5.173-.286-1.523 1.206-3.364-1.523-.92-7.014-2.126-.286.603 5.459-4.253-5.459v-2.761l-5.808-4.253-4.856-7.331h-1.523l1.523-.889-1.238-1.841-.286-.317 3.332.317-.286-1.523 2.729 1.523 1.841-.603.603.603 6.697 8.823 3.967 1.238 5.776 3.967 3.967.889 5.173-3.047 3.967 6.094 9.458 1.841 5.776 1.523 13.108-2.729 1.841 3.332 1.809.317 1.841 3.65h.603l-.444-5.649-.159-1.65-3.65-5.808 3.65 5.491.159 1.968.444 4.729.92.92h.92l.286 1.523.92-1.206-.317 1.523 3.047 3.047 3.047-.635v1.841l-3.047 1.206 7.331 7.014 2.729-2.126-1.206-5.173 1.523.286-.603 1.238.603 1.523h.92l-.317 1.523 1.841 2.444.286 4.253 6.697 17.075 10.664 22.851 1.841 5.459 1.523 5.205 2.729 3.935 1.238-1.523v-3.047l1.809-1.206-.603-.92v-2.444l.317-1.206 1.206-.317-1.523-6.379v-7.617l-2.729-8.22v-2.761l1.206-.286v-2.444l1.841-1.238-.603-2.412 1.523-5.808v-4.856l1.523-2.444-.317-3.364-1.206-2.729.889-1.841-.603-2.126 1.523 2.729-.286-2.126 1.206 2.126-.603-2.126.603 1.523v-1.523l.603.92-.603-2.444 1.206 2.761-.889-3.682 1.206 2.761v-.603l-1.206-2.761h.889l5.808 11.267-.317-1.523.603 1.841 1.238.92 1.206 2.729 3.047 8.22 1.841 7.331v-1.523l.286 2.126v-1.206l.92 1.523-.286-1.841.603 1.841-.317-2.444.317-.603-.603-1.841.603 1.523v-1.523l-1.238-3.364 1.841 4.57.317-.286 2.126 7.903 1.809 6.094-.286-1.809 1.523 5.173.92 4.57.286.92.603 4.57.635 3.332v-1.523l.286 1.523.92 8.537.317-.92 1.523 6.697v.032l.032.095.254 1.111v.603l1.238 10.664.889 7.014 1.238 7.617v-1.841l.286 1.523-.603-6.982-.603-8.252-.317-3.936-1.523-7.014-.603-1.523-1.206-7.617-.603-2.444h-.317l-.603-3.364-.317-1.809-1.206-8.22v-.634l-.095-.254v-.032l-.222-1.238-.92-3.332.317-.92.92 3.967.286-.317.92 2.444 1.301 5.205.54 2.729v-.92l.92 3.332-.635-2.729-.762-4.253.762 3.65-1.523-7.617-.666-2.793-2.38-9.109-.222-1.492-.222-.825-.444-1.333-1.174-3.808.444 1.174-.508-2.539-.286-.317-3.047-9.426-1.523-4.285-.635-1.809-.603-2.126v.286l-.349-.889-.857-2.444.286.889-.603-1.523-.19-.476.032.19-.444-.92.222.222.095.095-.317-.635-.857-2.158-.064-.254.317.603-1.301-2.825-.222-.54.064.254.127.349.032.159.032.064.032.095.127.19.793 1.936-.603-1.206-.603-1.523.222.444-.54-1.365-.603-1.206-.603-1.841-.92-1.523.603.92-1.206-2.761-.603-.889v-.317l-.92-1.523-.603-1.841v.317l-.92-1.841.603.92-1.523-3.047-.92-1.523v-.286l-.92-1.523-.603-1.238-.286-.286-1.238-2.444-.286-.317v-.603l-.92-1.841-.317-.286-.92-1.841.635 1.523-.92-1.523-.571-1.143.571.857-1.238-2.444-.286-.286v-.032l-.127-.095-.19-.508-.286-.444v-.159h-.095l-.825-1.238.413.73-.413-.413v-.603l-.317-.317-.286-.603-.317-.317-.317-.603-.286-.286-.603-1.238-.317-.286-.317-.635-.127-.127-1.682-2.92-.317-.286v-.032l-.286-.571-.317-.317-.317-.603-.603-.603-.286-.635-.317-.286-.603-1.238-.317-.286-.603-1.238-.603-.286-.603-1.238-.317-.286-.603-1.238-.603-.286-.317-.92-.92-1.206-2.444-3.047-.286-.635-.317-.286-.603-1.238-.603-.286-.317-.603-.286-.317-.317-.603-.92-.92-.286-.603-.92-.92-.317-.571-1.809-2.158v-.317l-2.158-2.444-.889-.92-2.761-3.332-.603-.603-.317-.635-.889-.889-.317-.635-.603-.286-.317-.603-.603-.635-.317-.603-.603-.286-.286-.635-.635-.286-.286-.603-.603-.635-.635-.286-.286-.603-1.523-1.523-.317-.635-.603-.286-.317-.603-.603-.317-.286-.603-.635-.603-.603-.317-.286-.603-.635-.317-.286-.603-1.523-1.523-.603-.317-.317-.603-1.523-1.523-.603-.286-.317-.635-.603-.286-2.444-2.444-.603-.317-.317-.603-.603-.286-1.523-1.523-.603-.317-.317-.603-.603-.317-1.523-1.523-.603-.286-.317-.635-.603-.286-1.523-1.523-1.206-.603h.286l-.286-.317h-.159l-.159-.317-.286-.127v-.159h-.317l-.92-.92-.286-.286v-.032l-.317-.286-1.206-.603-.317-.635-.603-.286-.92-.92-.603-.317.603.635-.92-.635-.603-.603-.317-.286-1.016-.793.825.603-.698-.73-.635-.317.254.254-1.46-1.174-1.206-.984-.381-.254-.54-.286-.064-.127-.254-.159-.349-.349-.825-.54 1.777 1.492-2.126-1.523-.603-.317h.317l-.793-.54-1.047-.666.317.317-3.364-2.507-3.872-2.729-.381-.222v.254l1.555 1.079-1.873-1.079-.317-.603.635.349v-.032l.381.254 1.143.666-.635-.635-1.809-.889-.317-.635-2.444-1.206-.603-.603-.603-.317-.317-.286-1.206-.635-.603-.603-2.444-1.206-.92-.92-2.444-1.206-.159-.095-.032-.032-1.619-.793-.286-.286 1.904 1.079-1.999-1.174-.54-.54-2.539-1.27-1.428-.857.825.54-.508-.254-1.238-.603-.286-.286-1.841-.92-.286-.317-1.841-.92-.317-.286-1.206-.603h-.603l-.317-.317-2.444-1.206-.286-.317-1.841-.92h-.286l-1.238-.603-4.253-2.126h-.603l-.635-.317-.286-.286-3.65-1.841h-.635l-3.047-1.523h-.603l-2.444-1.206h-.603l-2.444-1.238h-.603l-2.444-1.206h-.603l-1.809-.92h-.635l-1.206-.603h-.603v-.317h-.603l-1.238-.603h-.603l-1.206-.603h-.635l-1.206-.603h-.603l-.159-.063.444.063-.793-.254-.159-.063-.159-.063-.635-.222-.666-.317h-.317l-1.047-.349-.476-.254h-.604l-.603-.317h-.444l.73.317-.825-.317h-.095l-.317-.159-1.174-.444h-.31799999999999995l-.762-.254 1.047.254-1.428-.413.222.095-1.206-.286-1.238-.317 1.523.317-.317-.127.381.063-.159-.063-.571-.159-.857-.349.159.159-5.935-1.682-2.761-.603-2.285-.54-.127-.063h-.159l-1.365-.317-.635-.286h-.889l-1.238-.317-1.809-.286zm18.63 4.507l.127.063h.127zm.127.063h-.19l.698.19zm1.936.603l-1.523-.603h-.254zm1.206.444l.413.159h.095l-1.396-.603.889.444zm74.075 35.514l2.729 2.063 4.094 2.856 1.301.793-.825-.54-2.539-1.873-.508-.254-.095-.19-1.365-1.016-.666-.317-.54-.54-.064-.095-.095-.032-.54-.254-.286-.317-.603-.286zm9.077 6.348l.508.349-.159-.317-.603-.286.254.254zm1.587 1.174l.571.349-.286-.254-.444-.254zm89.881 117.4l.064.254.54 1.27-.603-1.523zm.064.254l-.159-.349.19.508-.032-.159zm12.346 40.211l.508 1.841-.127-.571-.92-3.65.54 2.38zm2.19 10.41l.349 1.809h.286l-.317-1.206v.92zm.635 3.332v-.603l-.254-.73.254 1.333zm0 0l.825 5.046-.222-2.285zm.825 5.046l.064.762v-.317zm-18.82-48.304h-.603l1.206 2.126-.603-2.126zm-388.4-20.344l.254-.381-.92.92zm116.1-132.57l.54-.032-2.444-.317 1.904.349zm68.775-23.486l-.603.92h-2.729v.286l-1.238.92 2.444.603-.603.603.286.032-.603.603h2.761l-.92.603h3.046l-1.841-.603 1.523.286-1.523-.603 1.523.317-1.523-.635 1.238.317-1.841-.603h1.523l-.286-.317-.635-.92 2.444-.889-2.444-.92zm-.286 4.57l-1.523.286 1.206.317-.92.317h1.841l-.603 1.206 1.523.603 1.809-.286 2.761 1.206 4.57.317-6.411-1.841-1.809-1.206-.317-.635-2.126-.286zm-88.072-2.761l-1.809.635h1.523l.286-.635zm110.32.317l1.206.317 1.523.603h.317l.603.286 1.809.635-2.729-.92h-.603l-.317-.317h-.286l-1.523-.603zm-116.1.92l-1.206.286h1.523l-.317-.286zm-4.888.92l1.523.286-1.65-.254.127-.032zm113.97.286l-.92.317 1.206.286h.635l-.92-.603zm-114.57.603l-1.809.317h-.92l-.603.603 1.206.317.825-.825 1.301.222v-.635zm-29.865.317l-.952.381.064-.063-.857.286h.222l-.508.159.825-.159 1.206-.603zm-2.126.603l-.857.317h-.064l-.222.127-1.301.476.92-.286-.603.286.92-.317.857-.286h-.254l.603-.317zm-.603.317l.54-.095.286-.19-.825.286zm-1.523.603h-.603l-.666.317h-.254l-.698.286h-.222l-1.143.571h.064l.793-.254.889-.317h-.095l.222-.063-.127.063.92-.286.92-.317zm168.37-.793l.571.19h-.159zm-9.267 1.047l4.824 1.27-2.761-.603zm5.776.19l2.095.762 4.253 1.523 1.238.635.603-.317 2.126.603-2.729-.286-1.523-.635-1.238-.286-2.729-1.238.92.635zm-169.13.762l-.825.413 1.396-.413h-.571zm0 .317l-1.428.413-.19.095 1.619-.508zm-1.619.508l-1.428.413-.635.19v.032l-.286.063h.286l1.238-.286-.857.159 1.46-.476.222-.095zm-2.349.698l-1.523.635-2.126.603-2.158.92 1.238-.317-2.126.603h.603l.603-.286h.317l1.047-.444.762-.19 1.238-.603 1.206-.286.92-.635zm0 0l.286-.095v-.032zm.286-.127l.413-.159h-.413zm.413-.159h.222l.603-.317.095-.032.698-.222h.064l-.571.254.73-.19.159-.095h-.159l.19-.063-.222.032-.032.032h-.349l-1.428.603zm-6.792 2.729l-3.364 1.238-4.57 1.809-.603.317-.317.286h.317l-2 .857.476-.254 1.206-.603v-.286l-2.412 1.206v.317l-.92.286-3.047 1.841 4.57-2.126-1.238.92 2.158-1.238-.317.317 1.206-.603h.317l1.206-.635h.635l1.111-.825 1.016-.381-2.126.603 1.523-.603.286-.317 1.809-.508.952-.381-1.841.603 1.523-.603-.92.286-.92.317 2.158-.92-.635.317 1.523-.635h-.286l.92-.286.603-.317zm-2.761 1.238l-.603.286 1.523-.603-.92.317zm-8.506 3.332l-3.047 1.238-.92.603-2.444 1.206-.603.317h-.349l-.317.159-1.174.444-1.206.603-.92.603-.603.317-1.523.603-3.967 2.761 6.601-3.745.698-.222-4.253 2.444 2.729-1.523 4.888-2.444 1.27-.762-.666.444.984-.603 2.38-1.111 2.444-1.333zm-2.444 1.333l-.317.19 1.238-.603-.92.413zm-4.919 2.031l.635-.317 1.143-.571-2.031.889h.254zm179.19-10.981l1.206.603 2.444.635v-.317l-.603-.317h-.317l-2.729-.603zm-149.29.317l-.92.286-1.523.635.603.286-1.523.317 2.158-.317 1.523-.92.603-.286h-.92zm176.71.286h.317l2.412.92-2.412-.603-.317-.317zm-87.754.92l-1.206.92 1.809-.92zm18.884 0l-.286 1.238-2.126-.317 2.412-.92zm31.388 0l-.286.603 1.809.635.92-.635-2.444-.603zm40.529 0l1.523.317h-.92zm-94.768.92l-1.523.603h.92zm.635 0l-1.238 1.206 3.047-.889-1.523.286-.286-.603zm99.021.92h1.206l-.317.286-.889-.286zm-68.267.286l1.238 1.238-1.238.286v-1.523zm-12.187.317h3.364l-.603.603-2.761-.603zm-121.24 1.968l-.317.159-.92.317 1.238-.476zm190.11.476l.286.603-2.412-.317 2.126-.286zm-144.72.286l-1.841.92h-2.444l-.889.92.286-.92-2.444.92-.286-.603-.317-.317-3.332 1.841 1.809-1.523-1.523-.92-.603 1.206-.603-.603-.92.92-.92-.317-.286.635h2.729l-2.126.603.92.286-3.967.317 3.047 1.206-3.967 1.238 3.047-.317 1.206.317 1.238.603 4.253-.603 4.57-.92 3.65-1.523-.603-.317h1.238l-.317-2.126 1.523-.603-1.841.603-.286-.92zm161.77 0l1.841.317 2.444 1.206v-.286l2.126.603 3.65 1.841-3.967-1.841-1.809-.603.286.286 7.014 3.682.54.381 1.587.825 5.491 2.444-5.491-2.126-1.587-1.143-7.236-3.745-3.047-1.206-1.841-.635zm-75.25.635l.92.889-1.523-.286zm-131.01.889v.317l-2.285.444zm190.42 1.523l5.173 2.761 1.238 1.523 10.664 3.65 7.903.317 6.728 1.523.444.19.444.095 4.57 2.126 1.238.317 2.126.92 5.776 2.444 2.158.889 3.047 1.523-5.205-2.412-7.617-2.761-1.523-.92-5.014-2.222-5.332-1.111-8.22-.317 2.444 1.238-14.631-5.491-2.126-1.841-4.285-2.444zm-66.109.92l3.047.92h-2.729l-.317-.92zm15.837 1.523h.317l2.729.92h-1.523l.603 1.206-2.126-2.126zm14.028.317l2.444 1.206 8.22 2.444-8.22-2.126zm-29.262.286l5.491 2.761-2.444-.92.317 1.174-1.523-.571.603-.92-2.444-1.523zm14.314.317l1.238.603-1.523-.286.286-.317zm-15.837.603l.603 1.841.317-1.238 1.206.635-.889-.92 1.523.603-2.761 1.841.286 1.333.286.159 1.555-.286-.286.92-1.27-.635-.254.032-.032-.19-.889-.444.603-.889.603-.92-.603-1.238-1.206-.286 1.206-.317zm18.598.603l3.047.92 3.047 3.047-.92.603-2.444-.286 1.841-.317-3.967-1.523-1.523-1.809 2.126 1.206-1.206-1.206 1.809 1.206.92-.317zm-163.32.635l-1.143.413-.19.127 1.333-.54zm-1.333.54l-.19.063-3.047 1.523v.286l1.523-.889 1.714-.984zm-3.237 1.587l-2.475 1.46.666-.254 1.809-1.206zm-2.475 1.46l-.222.095.571-.349-1.206.603.413-.159-3.174 2 3.174-1.968-.127.127.571-.349zm-3.618 2.19h-.286l-.317.317zm9.521-5.364l.222-.127-1.523.603 1.301-.476zm153.48-.413l1.523.286v1.523l-2.729.92 1.523.317-2.444.286-1.523-1.206 1.841.286 1.523-.603-2.412-.92h3.015l-.317-.889zm-11.87.889h2.126l.317.635-2.158.286v.92l2.158-.92-1.523 1.238-.635-.317v.317l-.286-2.158zm16.154.92l5.776 2.761-2.729 1.523-4.888-3.047zm-165.16 3.364l-.889.476.603-.19zm-.889.476l-.317.127-.508.349zm-.825.476l-1.016.571-1.841.92-.889.603-1.238.603-3.65 2.126 2.444-1.523-2.761 1.523 3.364-2.126h-.317l-3.047 1.841-6.697 4.253-3.967 2.729-3.428 2.444 1.016-.603-1.238.92h-.19l-.413.286-7.617 5.491-1.523 1.238-.317.286h.317l-.317.317h.317l-4.253 3.332 3.364-2.825.571-.825-1.809 1.523-.317.317-.286.286-.19.095-1.555 1.238-.095.19-.413.222-.349.254-.095.095-.349.349-.222.127h-.032l-.381.19-.064.19h-.032l-.032.095h-.16v.317h-.317l-.286.317h.286l-.92.286-.286.603-.603.317-1.238 1.206-.603.317-.317.603-1.206.603-.317.635-.603.286-2.126 2.126-.603.317-.317.603-.603.317-1.65 1.65-.19.159-.286.317-2.444 2.444-.857.793-.064.127-.286.286-.19.095-.444.413v.095l-.889.825-.317.413-.825.603-.064.063-.19.159-.476.444-.032.032v.032l-.254.476-.603.317-.603.603-.317.603-.286.635 2.444-2.761-.92 1.238 2.126-1.523 1.206-1.523-.286.603 3.65-2.761-2.126 1.841h.921l-1.523 1.206.889-1.206-3.65 2.729-2.126 2.444-.92 1.238 4.285-3.967v.603l.889-.92 2.761-1.523.92-.603.476-.73.762-.476h-.349l2.761-2.158 2.444-2.412-4.285 3.332-.984 1.206.381-.603-1.523.635 1.523-2.158.92-.889 1.523-1.523h-.317l2.761-2.444-.92.603.92-.92v-.286h.603l1.809-1.238 2.444-2.126-.286-.317-2.761 1.841-3.332 2.729 1.809-1.809 4.285-3.047 2.729-2.126.92-.92h3.332l.635-.317.064-.159h.032l3.84-2.571 1.841-.603 3.364-1.841.889-1.206.635.286-.317-.603h.603l.603-.603 2.158-1.523 1.206-1.238-2.126.92 2.126-1.523.317-.603-2.095.984 1.777-.984-1.523.603 3.65-1.523v-.603l.92-.603-.92.286 1.238-.889-2.158 1.206 1.841-1.206.317-.317-.73.476-1.111.444 3.364-2.126v-.635l1.206-.603h-.317l.635-.603.603-.317.286-.286 2.158-1.238.889-.889.92-.317.92-.92.92-.603 1.206-.603-1.206.286 1.809-.889 1.523-.92h-.603l.92-.317 2.539-1.777zm-50.367 38.053l-1.238 2.126 2.158-1.523h-.92l1.809-2.126zm1.523.889l-1.682 1.714.762-.476h.317l.286-.603.317-.635zm-1.682 1.714l-.73.444h.286zm-10.219 5.903l-.286.317-.603.317-.317.286-.317.603.317-.286h.317l.889-1.238zm1.809-2.063l.349-.349-.317.286-.032.063zm2.761-2.603v-.19l-.286.286-.444.571.73-.666zm17.836-16.186l.254-.222-.095.063-.159.159zm32.436-23.01l1.238-.603-.92.603 2.126-1.206h-.286l-2.158 1.206zm190.14-3.65l.603.603h-1.841l1.238-.603zm38.688.92l3.364 2.729-.317.603.92.698.349.222h1.777l-.92.317 1.523 1.206-2.38-1.523h-.064l-.286-.222-.603-.381-1.841-.317 1.206-.603-1.809-.317.603-.603-1.523-1.809zm-96.577 1.523h2.126l-.603 1.523-3.967.889.603-1.523h1.841v-.889zm58.492.286h2.126l-1.206.317.92.286 2.729 1.238-.603 1.206-4.285-1.809 2.761.603-2.444-1.841zm-36.879.603l1.238.635 1.523-.317-1.523-.317h-1.238zm14.028 0v1.523l-1.841-1.206 1.841-.317zm-79.82.92l-1.523 1.841h-1.523l-.317 1.809-2.444 1.238h2.761l-3.967 3.65 2.126-1.523 1.841-.92.286.92-.889-.317-2.444 3.047.286.635.635-.635 4.57-.286-2.158 1.206.635 1.238 1.206-.317-1.523 1.841.603.603-4.253.286-1.841 1.238 1.841-.317v1.238l-4.888 1.809 4.57 1.523 3.65-1.206-2.729 1.809h-3.364l-5.776 3.364 6.094-.603 1.206-1.238 10.061-.286 4.285-1.238.286-.603-3.047-.286 1.841-.317 3.332-2.729-.603-1.238h-3.967l.92-1.809-.603-.317h-1.206l2.126-.317v-.889l-2.444-1.238-.603-3.65-3.967-.603 3.364-.317-1.841-.286 2.444-.635 3.047-2.729-6.411.317 4.888-2.761h-4.57zm-3.047.317l-2.761 1.206-.286.603 1.523-.603 1.523-1.206zm68.553 0l.603 1.206 3.047-1.206h-3.65zm23.454 0l1.206.92-2.126-.317.92-.603zm-30.468 1.523l-2.126.92.286 1.206 1.841-2.126zm85.31 0l2.444 1.523-2.126 1.206 1.523-1.523zm-24.374.286l.317 3.047-2.158-2.412 1.841-.635zm-124.92.317l.603 1.523.317-.603zm38.402 1.206l2.126.317-1.841.317.317.889-.92-.603-1.206.603 1.523-1.523zm87.722 1.238l3.967 1.523 3.967-.603-3.967.889-3.967-1.809zm-126.12.286l-1.206.92 1.809-.286-.603-.635zm-91.721 1.238l-1.206.92.603-.635.603-.286zm138.03 0l-.603 1.206-.603-.92-2.761.635 2.761 3.332v-1.206l2.126-1.523-.92-1.523zm99.624.603l.92.603-.603.317-3.65 1.809.286.635-.286.889 1.523.92 1.809-.286-.603 1.523 2.444.286-2.126.603.603-.286-3.967-2.444.317-2.729-.603-.92 1.523.603 2.729-.603-.317-.92zm-104.19.603l-1.809.317-.317 1.206h2.126v-1.523zm167.89.317l.92.603.222.762.317.349 1.873 1.365 2.761 1.777-2.444-1.523-.317-.254-1.523-.952-.349-.413-.254-.19-.064-.159-1.143-1.365zm4.253 0l.603.286 1.523 1.238-2.126-1.523zm-219.37.286l-1.206 1.238-.317-.603-3.047 1.523h1.523l-1.523 1.206h-3.967l.635 1.206-2.444.92 3.047.603-3.967 2.158 3.65-.317-5.173 1.206h1.523l-2.444.92h2.444l-2.126.92 2.126-.317-1.206.635 5.173-1.238 5.173-.92 2.444-5.173 3.332-1.206-.603-2.126-3.332.603 1.206-.603-.92-.635zm-91.404.92l-2.475 2.063.952-.825 1.523-1.238zm313.76.286l.762.54-.095-.222-.666-.317zm-20.947.032h1.206l.317 1.206-1.523-.286v-.92zm-293.1.603l-2.444 1.841.286.286-1.206.317.92-.603-1.238.603-1.523 1.206.92-.92.603-.286.413-.381.508-.222.444-.317h-.127l1.809-1.206-1.682 1.206h.159l2.158-1.523zm146.85.603l-1.238.603 1.238.317zm-153.86 4.57l-1.523 1.238v-.317l1.523-.92zm275.42 2.126l1.841 1.238-1.238.286-.603-1.523zm57.191.73l.698.508-.286-.317zm-84.898.19l-1.523 1.523.603 1.841 2.444 1.809-1.841.317v-1.206l-.603-.92-1.238-1.841 2.158-1.523zm-246.79.603l-4.888 3.047-2.444 2.158-2.126 1.523-.603.286-1.238 1.238.317-.635-3.047 2.158h.92l-3.047 1.809-.92 1.238 1.523-.92.317.92 2.412-1.238-2.126 1.523 2.126-.603-3.65 2.126h.92l3.967-3.047-1.238 1.523-2.412 2.126 2.126-1.523-2.126 2.158h.603l3.65-3.047.603-.92-1.523.92 2.761-2.158-3.047 2.158.889-.92.92-.603.317-.635 1.809-.889-1.523.286 3.682-2.729h-1.238l1.238-.92-2.761 1.523 2.126-1.523-1.523.317 2.444-1.523h-.286l.603-.635-.92.635 4.57-3.364.603-.92h.603l.635-.92zm332.1.635l1.809 1.206 2.126 1.841zm-341.59 1.079l-.286.127-.286.317.571-.444zm-.571.444l-.603.286-.19.349zm341.24.889l1.809 1.238.317.92-1.841-1.523-.286-.635zm-159.96 2.158l.286.889v.317l-.286-.92zm-183.41.286l-1.523 2.444.889-.603.635-1.238v-.603zm218.45 0l11.267 4.285 1.523-.317 1.206 3.65-3.65.317-.603 1.809-3.047.635 2.729-.635.317-2.412h3.364l-.317-2.158-12.79-5.173zm119.43.317l.254.762.92.508 1.27.54.603 1.523 1.206.92v.603l2.444.92v.603l-3.047-1.523-1.523-3.047-.952-.54-.857-.349-.064-.159-.857-.476.603-.286zm-84.104.92h.317l.317.254 1.523.635v1.524l-.317 3.364-2.444.317-.603-1.523 1.841.603-.635-2.126h1.238l.92-1.523-1.523-1.27-.635-.254zm94.451.286l1.238.92.286.317-1.523-1.238zm2.761 3.047l.92.603.889 1.523-1.809-2.126zm-71.6 4.285l4.856.286 1.238 1.238.92 3.65 2.126.603-5.173-.317-.317 1.841 2.126 1.206-3.65-.286.317.92 2.126.603 3.047 3.65 4.856 1.523.317 2.126 3.364 3.65-1.523-3.332 1.809-.603 5.173 3.935-2.126 1.523-3.332-1.523.889 2.761 1.841 2.126-.92-1.206 2.126.286 1.238 1.841-1.523-.603.603 1.809.92-.92 1.809 1.841 3.967 7.934-6.379.889-10.061-3.935-3.047-4.888.603-1.523h.317l-.92-3.047 2.126-.92-3.047-.92-8.537-6.982-2.444-4.57v1.523l-3.935-3.967v-3.65l3.935-.317v-2.729l4.285-1.523zm54.239.889l6.697 1.238.92-.92-.317 1.523-6.094-1.523v2.444l2.729 3.332-3.65-2.729-.603-2.126.317-1.238zm-30.468.317l2.729.603.603-.603-.286 2.126 1.206 1.523 3.967 1.841-.603 1.206v2.444l1.523 1.206-2.158.635-.603.286-1.523-1.523-2.729.317-2.761-3.967-1.206-3.047h2.126l-1.206-1.841 1.523.92v-.92l-.603-1.206zm-316.45.127l-.413.19-.317.286-.159.286zm359.11.793l2.412 2.126-2.126-.92-.286-1.206zm-369.58 9.743l-.603.317-.317.603zm171.54 1.841l-3.364 2.412 1.206 3.047 2.158-2.126v-3.332zm-174.4 1.016l-1.111 1.111-.159.222.476-.222.793-1.111zm-1.27 1.333l-.159.063-.159.349.317-.413zm-.317.413l-.444.571.317-.286zm378.88-1.555l.92.317v1.523l-3.047-.92 2.126-.92zm15.551 2.126l.92.92h-.92zm-395 .159l-.793.762-.095.127-.032.032-.159.159-.064.127-.444.571.064-.032.317-.413-.19.349.317-.317 1.079-1.365zm-1.396 1.682l-.127.064-.159.222.286-.286zm-.19.095l-.413.19-.317.635.317-.317zm176.62 1.111l-3.967.92.286 7.3 4.285-1.206 1.206-4.57-1.809-2.444zm-177.95.317l-.286.286-.92 1.238.286-.317.92-1.206zm-1.206 1.523l.127-.286-.73.889zm-.603.603l-.92.92-.127.254 1.047-1.174zm-1.047 1.174l-1.111 1.27.92-.92.19-.349zm-1.111 1.27l-.286.286-1.016 1.333.413-.413.603-.603.286-.603zm-.889 1.206l-1.365 1.809.73-.889.635-.92zm-1.365 1.809l.222-.444-.698.92.317-.159zm-.476.476l-.317.159-.286.603zm-.603.762l-.603.603-.286.603.889-1.206zm-.889 1.206l-.571.762 1.396-1.746-.825.984zm-.571.762l.317-.476-.984 1.238.286-.286.381-.476zm-.666.762l.095-.159-.413.476.286-.254.032-.032v-.032zm.095-.159l.889-1.079.095-.127-.793.762-.19.444zm3.332-4.253l.73-.952-.508.508zm4.919-5.903l.793-.952-.635.635zm309.41-.952l1.841.92-2.729-.286.889-.635zm-152.63 3.967l-3.364 1.523 2.126.92 2.158-1.523-.92-.92zm84.707 2.126l-1.841.635 1.841.889h1.206zm25.263.92l1.238 2.444-1.523-.92.286-1.523zm-36.244.317l-1.841.603 6.094 3.364-1.206-2.444-3.047-1.523zm72.203.286l-.92 2.444-3.047-.603 3.967-1.841zm-82.549 1.841l-.635 1.206 1.841.317-1.206-1.523zm-18.281.92l-11.902.92.603 1.523 8.537 3.332 2.761-5.776zm107.53 0l3.047 3.332-1.206.92-3.047-3.967 1.206-.286zm-317.76.603l-.603.889.159-.159zm-.444.73l-.222.413.317-.508-.095.095zm-.222.286l-.476.73.222-.222.064-.159.095-.064.064-.095-.064.032.095-.222zm-.635.92l-.54.508-.317.603-.127.127.127-.444-.476.793.19-.159.127-.159-.127.444 1.143-1.714zm-1.333 1.587l-.413.444-.317.603-.603.603-.127.286-1.365 1.809-.032.032v.032l-.095.159-.19.413.825-1.143-.317.349.857-1.111-.476.698.317-.286.286-.571.064-.127 1.174-1.46.413-.73zm-2.317 3.237l-.54.857.571-.857h-.032zm437.88-3.396l1.841 2.412-.317-.286-.603-.603-.603-.317v-.603l-.317-.603zm-174.59 2.729l-2.126 1.206 1.238.635.889-1.841zm-264.21 1.904l-.54.54-.286.54.825-1.079zm-.857 1.143l-.54.73.254-.127zm-.286.603l-.603.603.349-.476-.349.19-.635 1.238.635-.635.603-.92zm-1.238 1.555l-.286.286-.317.603.317-.317zm290.97-2.158l-8.22 2.444 3.047 2.126 3.65-1.523-.889-1.206 2.412-1.841zm-41.735.317v1.523l4.57.889h5.491l.317-1.206-1.841.92-8.537-2.126zm-249.87 2.793l-.254.254-.222.413zm-.476.666l-.603.889.19-.095zm-.603.889l-.413.222-.73 1.428 1.143-1.65zm-1.143 1.65l-.413.603.222-.222zm-.476.698l-.317.286-.381.73zm-.698 1.016l-.825 1.27.286-.159.54-1.111zm-.825 1.27l-.317.159-.603 1.206.92-1.365zm334.83 1.047l4.285 1.841 3.936.603 1.238 1.841-1.523-1.841h-2.761l-5.173-2.444zm125.01 1.365l.381.666.127.127.222.413.635 1.047-.222-.254-.413-.793-.349-.54-.159-.19-.222-.476zm1.523 2.507l.317.508-.095-.095-.222-.413zm-7.109 4.983h.92v1.523zm10.981 1.365l.095.159h-.095zm.317.571l.095.19h-.095zm-358.32 5.078l-2.126 1.523 1.523-.635zm351.3 0l.92.889v.92l-.92-1.809zm-353.43 1.809l-3.047 3.047 1.809-.603zm-8.22.92l-3.047.92.286 1.523 2.761-2.444zm.889 1.523l-.603 1.206 1.523-.286-.92-.92zm285.51 5.173l-3.047 1.841 2.412-.92.635-.92zm81.629 3.047v2.444l3.047 7.3-3.332-7.3.286-2.444zm-1.523 5.173l4.285 4.888-2.761-2.729-1.523-2.158zm-166.65 4.57l1.523 4.888-4.253.92-3.967 5.173 2.444-4.888 3.65-.889.603-5.205zm-325.4 17.995l-.286 1.206-.317.92h-.286l-.635 1.841v.286l-.603 2.126v-.603l-.286.92-.317 1.047v-.127l-.92 3.047.603-1.841.317-.603v-.127l.603-1.396v1.206l.92-1.809.317-2.126.286-1.238v.317l.603-1.841v-1.206zm-.286 7.014l-.92.286-.603 1.841.603-.317.92-1.809zm517.64 0l.317.286v.92l-.317-1.206zm-397 7.903l3.047 2.444 2.158 4.57-5.205-6.697-6.982.286 6.982-.603zm-120.35.603l-.603.92-.286 1.523.889-1.206v-1.238zm359.84 3.047l.317 1.238 1.809.286-1.809-1.523h-.317zm-198.96.92l1.523 1.841-1.206.286-.317-2.126zm-76.456 1.523v1.523h.889zm438.1 1.523l.92 3.967.349 1.016zm-281.19 4.888l.889 3.047 1.841-.92v1.523l4.253.603-5.459 2.761-3.364-6.411 1.841-.603zm275.42 4.856v1.523l.603 1.238zm-101.15 1.841l2.729.92 1.841-.92zm-425.63.317l-.92 3.935-.317 1.523.159-.127.159-1.079.603-2.444.317-1.809zm-1.079 5.332l-.159 1.016v-.254l-.92 4.57v.889l-.286.92-.159.857.159-.54-.095.571-.127.381.064-.413-.159.666-.127.984.127-.73v.254l-.127.476.127-.381v.317l-.159.286-.032.095v.032l-.032.222-.064.476v.413l-.064.222v-.254l.064-.381v-.508l-.127 1.27-.095.73.127-.793-.222 2.444v-.286l-.19 1.27-.032.127-.095.73-.889 6.697-1.238 11.267v2.761l-.286 4.57v.92l-.317 3.332v17.678l.317.603v2.761l.254 3.269.032.064v1.841l.317.603.286 2.444v.286l-.286-2.412-.317-.635v1.841l.317.92v3.047l.286.603v2.444l.317.603v2.444l.317.603v2.126l.889 6.697 1.523 8.537 1.238 6.094 2.126 9.743.317 2.444 1.809 6.697 1.841 5.491.92 3.364 1.809 5.173 2.444 7.014 2.444 6.379 3.65 9.14 3.65 8.252 7.617 14.917 2.444 4.253.317.317 1.206 2.444 7.934 12.187 7.3 10.664 2.126 3.047.603.92 6.411 7.903 4.888 5.808 1.206 1.206.317.413v.19h.159l.73.92 2.444 2.444 3.047 3.332.92 1.238h.317v.286l5.173 5.205h.286l.762 1.016.571.508h.127l.159.254-.286-.254h-.095l.603.603.317.286-.349-.476.508.476h-.159l.286.317 1.841 1.841-.793-1.079.127.095.032.032.032.032.73.92h-.127l.381.317.222.286h.127l1.079.92.92.603v.286l.92.635-.603-.317 1.523 1.206 1.523 1.238.92.92.286.286.698.603h.222l.159.349.032.032 1.016.857.92.92 1.523 1.206.603.603.603.286.032.032 1.206.92 1.523 1.523 1.841 1.523 1.523 1.206-1.841-1.523.603.317.317.286 1.079.92h-.159l2.253 1.555.381.317.54.381.159.19.286.159h.032l.064.064.857.698.19.127.032.032.698.381.825.603-.222-.254.095.064.476.381.127.127.254.222-.73-.54.381.381.444.286h.064l.127.127-.19-.127h-.159l.317.317 1.523.92-.317-.317.571.286.064.032.603.286.286.317.444.444 2 .762-.92-.92-3.935-2.126-2.126-1.492.286.286-.603-.317-.413-.19-.064-.127.476.317-.476-.349-.095-.19.698.444-2.888-2.031-.603-.603-2.729-2.126-.317-.317-1.809-1.523-3.364-2.729-.317-.349v-.286l-3.332-2.729-6.094-6.094-.92-.603-3.65-3.047-2.444-2.761-.603-.889-4.285-4.57-1.523-2.158-1.523-1.206v-.603l1.238 1.206-.603-.92-1.841-1.809.92 1.206-1.523-1.206-4.285-4.888 2.158 1.523v-.92l-4.888-5.776.603.317-2.126-2.158 1.523.635.317-.635.603-.889-.317-1.841-2.444-4.57-1.809-2.126-1.523-1.238-1.523-2.729-3.967-3.364-3.364-5.459 2.444 3.332 1.841 2.444 3.047 1.523 1.809-.92-2.126-6.379-2.444-5.205-1.523-5.776-1.206-1.523 2.126 1.841 1.523 6.982-.286-3.935-1.523-4.888-.92-2.729v-3.364l-2.444-5.776-2.126-3.682-.603-3.047-.92-.889.92.286-.317-3.332.92-3.364 1.809-.317.635-3.935 2.126.603.286-1.841.635 1.238 2.126.286-.603-2.126 1.523-2.444-.92-2.126.286-7.3v-1.238l-1.206-5.491.317-3.047-4.285-22.534.317-1.206.92 2.126.603-1.841 3.332-12.473 2.444-7.617-.286-5.808-1.841-7.903-1.206-1.841-4.285-.603-4.253-6.094-3.967-3.967h-5.776l-3.047-2.444-2.761 4.888v-3.65l.603-1.238-1.206.603.92-2.126-.92-3.047-.603 2.126-.317-2.412-.603.889.317-1.206-.635.92-.603-1.841-.286 1.238-.317-2.158-.317 1.238-1.809-2.761-.317 1.238-1.206-.92-.92 3.967.92.286-.603.92-.635-1.523-1.523 4.888.317-3.364-2.126 1.238 3.047-2.158.92-5.776-3.967-.92-.603 4.285-.317-2.158-.603 2.158v-2.444l-.603 2.444.603-4.57 2.444-6.094h-.317l.317-2.444-1.523-1.841-.317-10.346-.317-.603-.286 1.523-.92-4.285-2.444-4.253-4.253.286-.92-5.173-.603 2.444.603-4.57-.317-3.047-.603-2.444v-.603l-.92.317.635-4.285-.317-2.126-.603.603v-2.729l1.206-1.841-2.126.317.317.92-1.238 2.126-.286-2.761-.92.635.603-3.364-.286-1.047-.032.127v-.921l-.286 1.238-.032.032-.127.127zm.444-.762l.032.159.286-1.079h-.159l-.159.92zm.159-.92l.476-2.444-.635 2.444zm109.97 279.23l-.444-.349v.19zm-.444-.349v-.095l-.889-.603.889.698zm-5.237-3.586l.064.127.603.317-.666-.444zm-1.46-1.079l-.698-.571-.508-.349 1.809 1.523-.286-.317-.317-.286zm-105.62-260.34l.064-.666-.159.508v.92l.064-.508.032-.254zm364-16.916l-.603 3.332-1.523-2.412 2.126-.92zm-153.55 4.57l2.729 2.126-.92 4.253v.635l-.286-.635-.92-1.809 1.809-2.444-2.412-2.126zm-202.93 2.444l-.92.603v1.809l-.603 1.238.92-.317.603-3.332zm504.25 4.57l-.317.286-.286.317h.286l.92 1.206-.603-.603v2.444l.064.127v.032l.54 5.014-.603-.92 1.206 4.348v.54l.317.603.92 4.888 2.126-.92.92-3.967-2.126-7.014-3.364-6.379zm-506.37.603l-.603 4.856.286.317-2 2.761-1.047 1.809-.286-.92-.635.92-1.523 7.014.635-4.57.889-2.444.635-1.206.286 1.206.603-1.206.444-.603 1.396-2.444.317-1.523.603-3.967zm180.68 3.047l4.856 5.776.317.603.92-5.776-1.238 13.393v-1.523l-.286-.286-3.364-1.523 3.047.92.317-.635.603-2.412-.603-.92-.92-.317h-2.126l2.729-.92-3.047-1.523-.603-2.729h-3.364l3.047-.317-.286-1.809zm34.118 2.126l1.809 3.967-1.809 11.267 1.523-11.584-1.523-3.65zm-53.636 2.444l-1.206 3.332.603.92 1.206-.92-.603 2.444-1.809-2.126 1.809-3.65zm-163 1.809l-.603 4.285.317-3.65.286-.635zm531.98 2.761l.603 1.809v-1.206l-.603-.603zm2.444 7.3l.889 4.57 1.523 4.57.92 6.697.92 2.761.317 7.014.603 3.936v1.238l.286 11.267.317 10.346-.317 2.761.317-1.841v1.524l-.317 3.047v-.286l-.064.571-.222.952v.889l-.317 2.158v.889l-.222 2.317.222-1.079v-.317l.603-4.253v-.317l.317-2.729v-1.523l.92-12.79.286-3.967v-.603l-.286 1.523.286-2.444-.286-.603.286-4.57-.286-1.523v-6.094l-.064.317-.254-.952v-.603l-.92-7.014v2.444l-.603-5.173-.286-1.523-1.238-4.253v-1.523l-1.206-3.967-2.126-1.841zm4.634 65.379l-.698 3.491.317-.92.317-1.841.064-.73zm-531.73-62.332v1.841l-.635.603.635-2.444zm349.14 1.523l2.126 10.981-3.65-6.094 1.523-4.888zm-128.25 4.285l-2.444 1.809v.317l1.206.603 1.238-2.729zm307.73 4.57l.889 2.126-.603-2.126zm-263.55 1.809l-2.158 13.711 3.364-7.014 3.967-2.126 3.332-1.809.92-.635 9.997-.825.381-.064.064.032.54-.032 10.061 6.982-10.6-6.95-.444.032-10.918 2.349-3.332.92-4.285 3.047.317 3.967-10.664 10.346-.317 4.285-.286-3.967 7.617-8.537 2.444-13.711zm62.745.317l-.92 3.332-3.332 3.047-.317-2.126 4.57-4.253zm9.458 3.332l-1.841.635.603 1.523-3.047-.92 4.285-1.238zm192.87.635v.603l.286 1.809.317 2.158v-2.158l-.603-2.412zm3.047.603l.286 1.809v-.889l-.286-.92zm.286 1.809v.635l.317.889zm-196.8 2.444l.603 1.523 2.126-.286 1.206 3.047 2.158-1.238.603.92-3.65 1.206-.317 4.57-3.65 2.444 3.047.92-2.126 1.523-2.158-.603.317 2.126-1.206.92.286-2.444-2.729-1.206-1.841 2.729-.92-3.967 1.841-9.426 3.047-1.523 1.523.889 1.841-2.126zm-328.45.92l-1.523.603.603 1.238.92-1.841zm312.3 2.126l-2.444 2.444.603-2.126 1.841-.317zm-332.42.603l1.238.317.095.317h.19l.92 3.174.603 1.682 2.126 8.537h1.777l.159-.635.508-3.015.286.127.032-.127.286.317.635.286.889-2.729h1.524l.635.603v1.523l.603-.317 2.126-3.65-1.523 2.729-.603 1.238-1.238.286-.286 5.491v-6.094l.603.317-1.206-.92h.603l-.603-1.206-1.523 3.047-.635-.603-.317-.19-.793 2.888-.095.635h-.064l-.254.92-1.206-.92-.317.603-1.523 3.364-.19-.508-.095.19-.317-1.206-.603 3.65-.317-1.841v-.286l-.889-3.047v.92l-.635-3.967-.603-1.238-.603.317.92-.603 1.206 5.173.92 2.729.603-1.809.413 1.016.825-1.619v-1.841h.889l-.603-.603-1.523-7.617-.603-2-1.111-3.174h-1.619l.286-.635zm237.65 2.761l1.523.603-1.523.92v-1.523zm305.92.92l-.317.889.317 2.761v-3.65zm-534.71 1.523l.889.603v1.523l-.889-2.126zm269.64 1.206l-1.238 1.841 1.523.603-1.809 2.729-.635-4.57 2.158-.603zm49.955 0l1.523 2.126-2.444 2.126.92-4.253zm-311.98.92l1.809.286-.603 1.841.317 1.206-.92-3.047v2.444l-.603-2.729zm527.38 4.856v2.761l.317-1.841-.317-.92zm-544.46 2.761v.603l-.603-.317zm330.26 0l2.761 11.584-1.238 2.126 3.967 3.332 2.444 8.537-3.047-1.206-1.523-5.808-4.253-5.459.286-9.775-.92 1.238 1.523-4.57zm45.099 11.267l-.603 2.126 1.523 1.523-.603-2.444zm-33.515 8.823l2.761 2.444-2.761-.603zm-10.346 4.285l1.809.286-3.047 1.841 1.238-2.126zm-2.761.603l-2.126 3.967-1.809.286.286-2.126 3.65-2.126zm22.248 4.253l2.126 2.158 1.523 6.982-1.523 4.57 1.841 9.14-2.729-1.206-2.158-8.823 1.841-2.761-1.206-7.903-.317-1.238h.317l.286-.92zm-19.201 6.411h.317v1.841l-1.523.603 1.206-2.444zm59.413 2.444l-.603 1.523.92.92-.317-2.444zm24.089 2.729l-2.444 2.126-.317 4.285-2.412 2.126-1.238-.92v3.047h-.92l-1.809 3.65.286-1.809-2.126 2.444.603 1.206-1.206.603.317-1.809-2.158 1.523v2.126l-1.206-1.238-7.3 2.158-3.047 6.094.603 11.267-4.888 5.776-1.809 4.57.603 11.902 3.332 1.809 8.537-2.126 14.948-30.151.889-4.57 1.841-1.523v-6.094l1.206-.317.635 2.444 1.523-2.444-.635-11.267-2.412-3.364.603-1.523zm-19.804.317l-.92.603 1.206.92-.286-1.523zm-68.87 21.01l-4.253 1.238-5.173 5.173 3.935-5.173zm-284.88 7.331l1.841 3.047-.317.889-.92-.286v-2.126l-.603.603v-2.126zm397.92 8.22l-1.238 2.444 1.523-1.238-.286-1.206zm-395.16 2.444l.286.889 1.238 1.841-1.841-2.126-.603.603 2.444 3.364-1.238-1.523-.286.889v-1.206l-1.523-2.126 1.523-.603zm387.55 1.523l-1.523.603 1.523 1.523v-2.126zm-390.31 10.346h1.238l.286 1.206-1.523-1.206zm-5.173 17.36l3.364.92h-3.364l3.079 7.204.286.413 1.523 3.047 1.809 3.047.603 1.523 1.238 3.047 3.332 5.491-3.332-5.173-1.238-3.047-.889-2.158-1.523-2.729-1.238-2.126-.571-1.333-.349-.508-2.729-6.697v-.92zm274.81.603l-.92 1.841-1.65-.54h-.064l1.111.857-1.523-.635.413-.222-.095-.064.159.064 2.571-1.301zm-270.85 13.425l.603 1.523-.92-1.238.317-.286zm14.314 6.379l1.523 2.761h-.603l1.206 3.047-1.206-2.126zm-3.047.92v1.523l.603.92-.92-.317h-.286l.603-2.126zm30.119 49.987h.032l.095.19-.127-.19zm.952 1.016l.984.889-.984-.793v-.095zm332.1 8.125l-3.047 3.332 1.523-.92.92.92-.317-1.206 1.523.286 1.238-1.206-2.761.603 1.238-.92-1.523.635 1.206-1.523zm-308.93 7.903l2.126 1.523.317-.286-1.238-.92.92.92-2.126-1.238zm2.126 1.523l.603.92.92.92-.603-.92v-.317zm-3.047-1.206l1.841 1.206.603.92.603-.317-1.841-1.809h-1.206zm2.285 4.538l.666.413-.222-.095-.444-.317zm33.07 3.079l5.776 2.444-3.364-2.158-2.412-.286zm-24.374 3.047l1.523 1.206.889.317-2.412-1.523zm38.085 19.804l.889.603.317-.317-1.206-.286zm-.635.286l1.238 1.238.286.286 1.428.889.095.032 2.285 1.428 1.682.698 1.841 1.238 2.126.92 3.047 1.206-1.016-.222-2.349-.984 2.031.92-.19-.032.635.222 1.492.698h.317v-.286l3.047 1.523 3.65 1.587.92.222h-.317l.92.381 1.523.222.603.635 2.444.889 2.444.635 2.729.889 2.126.92h.317l4.57 1.523h.254l-.413-.127-.127-.127.666.254h.54l1.206.603h.603l.635.317.889.317h.635l.603.286h.603l.603.317.92.286h.603l.603.317h.635l.889.317.635.286h.603l.603.317h.603l.92.286h.603l.603.317h.635l.889.317.635.286h.603l.603.317h.603l.92.286h.603l.603.317h.635l.889.317h1.238l.603.286h.92l.603.317h.603l.603.286h.92l.603.317h1.238l.92.317h.603l.603.286h1.523l.603.317h1.238l.889.286h.635l.603.317h1.523l.603.317h1.523l.603.286h2.127l.635.317h1.206l.92.286h2.126l.603.317h2.126l.635.317h2.73l.603.286h2.761l.889.317h3.966l.92.286h5.491l.603.317h17.962000000000003l.92-.317h6.093l.603-.286h3.681l.889-.317h3.047l.635-.286h2.126l.603-.317h2.73l.635-.317h2.126l.603-.286h1.523l.603-.317h1.238l.889-.286h1.841l.603-.317h1.5230000000000001l.603-.317h.635l.889-.286h1.238l.92-.317h1.206l.603-.286h.9199999999999999l.603-.317h1.238l.603-.317h.603l.603-.286h.9199999999999999l.603-.317h1.237l.889-.286h.635l.603-.317h.603l.603-.317h.9199999999999999l.603-.286h.603l.635-.317h.603l.92-.286h.603l.603-.317h.603l.603-.317h.92l1.238-.603h.603l.603-.286h.9199999999999999l.603-.317h.603l1.238-.603h.603l.92-.317h.603l1.206-.603h.603l.635-.317h.889l1.238-.603h.603l1.206-.603h.92l1.238-.603h.603l1.206-.603.92-.317h.603l1.238-.603h.603l1.206-.603.92-.317h.603l1.238-.603h.603v-.317h.603l1.206-.603h.635l1.206-.603h.317l1.809-.92h.603l1.841-.92h.603l1.238-.603.286-.317h.603l2.444-1.206 3.364-1.206h-.317l2.222-1.016-1.619.698 5.808-2.729-2.761 1.206.92-.603-2.444 1.206 2.444-1.809-4.856 2.126-2.444.92-.317-.317-3.047.603 2.761-1.523-5.491 1.238 1.809-1.523-2.412.889-2.761 1.841-3.332.92-1.841.603h-.603l-.127.127-1.111.19-4.253 1.523-3.364.603.92-.603-3.65.889 1.523-1.206-.92-.603 2.444-1.523-10.664-.603h-1.206l-2.158-.92 1.841-.92-3.364-1.206-6.379 1.206-1.523 1.523-1.523-.92-2.126.92h.889l-2.412.92-1.523-.92-1.523.92-10.061 1.523-2.761.92-3.332 1.523h-.317l-.286-.92-1.523.286-3.047-1.809-1.841.286-.92 1.238h-2.126l-.92-.92-3.65 1.206-3.364.635-5.459.603-5.491-.603-.92-.317-3.364-.317-3.65.317-.92-.92-3.65 1.238h-9.14l-.92.603-9.743-.603-2.444-1.841h-1.809l1.809 1.206-1.206.635-.603.286-7.331.603-2.126-.286-2.444 1.523.635.92h-2.761l-1.206.889h-2.126l1.523 1.238.286.286-.92 2.158 1.523.889.635 1.238h-1.238l1.523.92-2.92-.254-.127-.064h-.603l-.92-.317.603.317-1.523-.317.635.635-15.583-2.634h-.064l-.222-.127h-.444l-.222-.032h-.032l-.508-.254h-.92l-2.126-.635-6.697-2.126h-.317l-2.126-.92-11.267-3.65-1.238-.286-2.126-.92-.603-.317h-.127l-.889-.381-.19-.222h-.286l-.571-.254-.064-.064h-.095l-2.031-.889h-.635l-11.267-5.205-5.395-2.698 1.746.571-.603-.603-1.841-.603.571.571-.571-.286-.603-.889-1.841-.635zm40.307 17.678h-.127l.952.317zm-15.012-4.856l-1.206-.635h-.317l1.523.635zm-3.65-1.46h-.095l.413.159-.317-.159zm.317.159l.889.381.159.032-1.047-.413zm-.413-.159l-1.746-.698 1.523.635.222.064zm-18.598-8.95l-2.031-.889.603.317 1.428.571zm-1.428-.254l1.841.889v-.286zm35.038 14.314l2.158.603.603.222-2.761-.825z" fill="#b9b9b9"/><g stroke="#fff" stroke-width=".606" stroke-linejoin="bevel" fill="none"><path d="M82.364 79.642l.61-.305 3.048-3.048"/><path d="M89.984 72.936l.61-.61-5.791 5.791"/><path d="M86.022 76.289l4.877-4.267-.914.914"/><path d="M84.802 78.118l-1.219 1.524"/><path d="M7.383 217.711l-1.219 6.706"/><path d="M17.746 181.745l-2.743 7.315"/><path d="M1.897 285.682v-1.524l.305 2.438.305 5.486.305 2.134-.61-14.326-.305-5.182v-3.353l.305-.305"/><path d="M7.383 321.648v-.305l.305-.914.305 1.219"/><path d="M2.811 294.826l-.305-.914.305 4.572"/><path d="M5.25 319.21v.305l.61 2.134"/><path d="M5.859 321.648l-.305-2.743.305 2.743"/><path d="M9.517 249.106l-.305 3.353v.61"/><path d="M4.945 230.513l-.609 4.877-.305 3.048-.305 2.438h.305l-.305 3.962.61-.305"/><path d="M5.25 253.983l-.305 8.23.61.305v1.219l-1.828 7.315v-1.829l-.305 1.219-.305-2.134"/><path d="M8.907 249.106v1.219l-.61 2.134-1.829 2.438-.305 2.134-.914-3.048"/><path d="M9.517 249.106h-.609l-.305-3.353.61-3.658.914-1.829v-2.134l.305-1.524"/><path d="M4.335 244.534l-.915 7.925v5.486l-.609 2.743"/><path d="M3.116 268.308v-4.572l-.305 2.134-.305-1.524v1.524h-.305"/><path d="M2.811 260.688l.305 1.829v5.791"/><path d="M2.202 265.87l-.305 3.048.305.305v1.829"/><path d="M10.431 236.609l.609-1.219"/><path d="M9.212 253.068l.305 2.134-.609 5.486v4.572l.914 3.048 1.828-3.658 1.22.305-1.524-10.058.305-3.962.914-.914.305-2.134"/><path d="M12.87 264.955h.61v-3.048l1.524-.305 1.219 2.438.61-1.219 1.219.914 2.743-8.839"/><path d="M15.613 262.822l1.219-5.182-.305-7.01 1.219-3.962"/><path d="M11.041 235.39l.305-.61v-1.524"/><path d="M14.698 356.7l2.438 6.401.915 2.134 1.524 4.572 4.572 10.668.609.914 1.829 4.267.914 3.353 4.877 9.754v.305l4.572 9.144 1.829 3.048"/><path d="M7.383 325.001v-3.353"/><path d="M7.993 321.648l1.219 6.096.914 3.353.914 2.438.915.61 2.133 4.267 1.524 1.219 1.524 5.791 1.829 5.486h.305"/><path d="M5.859 321.648l.914 4.877.61.61v-2.134"/><path d="M7.078 326.22l1.829 7.315 3.353 14.326.914 3.353 1.22 3.962 1.219 4.267.305.914"/><path d="M24.147 380.475l-1.219-4.572 1.524 1.829 1.524 3.048-1.219-3.962h.61l4.877 7.925 1.524 1.524"/><path d="M25.976 378.036l-3.658-11.582 1.22-1.829"/><path d="M19.27 350.909h1.829l1.219 4.572 2.438 4.267 2.134 8.839"/><path d="M45.178 399.372l-.305 4.572 1.829 7.315"/><path d="M32.072 377.122l1.524 1.524 3.048 7.01 1.829.305 3.962 10.363.61 4.267"/><path d="M31.767 386.266l.914.914"/><path d="M32.377 386.875l4.572 5.182 2.743 7.925"/><path d="M23.538 364.625l2.743 2.438 2.134 5.182 1.829 5.182"/><path d="M40.911 392.667l1.219.305 3.048 6.401"/><path d="M39.692 399.982l3.353.61"/><path d="M32.072 377.122h-1.829"/><path d="M293.59 16.244h-.61"/><path d="M293.286 16.244h.61"/><path d="M260.367 62.878l9.449-1.829 3.658.914.61 1.829.914-1.219 2.438.305 1.524 1.219"/><path d="M242.384 64.097l-.305-3.353.914-2.134 3.353-1.219-.914-.914 2.134-2.438-2.134-.61"/><path d="M283.837 50.991h-1.219"/><path d="M260.977 64.097l-.61-1.219"/><path d="M280.789 18.987v.305l-3.353-.305-.305.914h-2.134l-2.438 3.048-1.829.305-2.134 3.048.914.914-3.048.305-1.829 1.524-.305 3.353 1.524.914-1.524.914.305 2.134-1.524.61-.914 2.134h-2.134"/><path d="M238.726 64.097l-.305-.61-2.134.61"/><path d="M235.983 64.097l-3.658-3.353"/><path d="M268.902 61.354l-.305-5.182-1.524-.61.914-1.219"/><path d="M242.384 61.659l-2.438-2.134-4.877.305"/><path d="M242.079 63.488l-.305.61"/><path d="M251.833 49.162l4.267.914"/><path d="M294.81 64.097l2.134-1.829-3.658-5.182 1.829-2.438-3.048-3.658h-8.23"/><path d="M281.703 18.072l-.914.914"/><path d="M292.981 16.244l-2.438.61-1.219 1.829-4.267-.305-2.134-.914-1.219.61 5.791 1.829 2.134 4.572"/><path d="M296.029 18.072l.305 1.219 2.743.914-.914 1.524 5.486 5.486-.914.914 4.267 1.829"/><path d="M286.275 46.419l2.438-.914h7.62l4.877 2.134"/><path d="M300.601 49.467l-.61 2.438-6.401.305"/><path d="M329.557 61.049l1.829 1.829 5.182-.305 1.829 1.524"/><path d="M318.279 57.696l5.486-.914 2.134 1.524"/><path d="M301.82 42.761l-5.486-1.524-2.438.61"/><path d="M312.793 47.638l-7.925-1.219"/><path d="M306.392 59.22l5.486.61"/><path d="M307.002 29.96l-6.096 5.182"/><path d="M304.868 46.419l-3.048-3.658"/><path d="M293.895 16.244l1.829.61.305 1.219 2.134-1.524"/><path d="M314.622 50.991l-1.829-3.353"/><path d="M300.601 58.306l-5.486.914"/><path d="M300.601 58.306l5.791.914"/><path d="M316.146 54.648l2.134 3.048"/><path d="M319.803 53.734l-3.658.914"/><path d="M301.21 47.638l.914.914-1.524.914"/><path d="M326.204 60.135l3.353.914"/><path d="M311.878 59.83l3.658.305"/><path d="M319.803 53.734l-3.048-.914"/><path d="M315.841 58.001l-.305 2.134"/><path d="M290.847 49.162l-3.962-.305"/><path d="M291.457 51.296l-.61-2.134"/><path d="M301.82 38.494l.61 3.048"/><path d="M318.279 57.696l-2.438.305"/><path d="M325.899 58.306l.305 1.524"/><path d="M301.82 42.761l.61-1.219"/><path d="M316.755 52.21l-2.134-1.219"/><path d="M303.039 47.333l-1.829.305"/><path d="M304.868 46.419l-1.219.914"/><path d="M316.755 52.21v.61"/><path d="M301.82 38.494l.914-.305"/><path d="M303.649 47.333h-.61"/><path d="M326.204 59.83v.305"/><path d="M302.125 37.884l.61.305"/><path d="M300.601 35.141l-.305.914"/><path d="M210.99 49.162l-3.353 1.829 4.267.914"/><path d="M278.96 64.097l2.438 1.829 1.524-.61 1.829 1.219"/><path d="M264.634 75.07l2.743.61 5.486-1.829 5.182 3.658 7.315-1.219"/><path d="M245.127 71.717l2.743-4.572-5.486-1.524v-1.524"/><path d="M242.689 84.214l.61-1.219-2.438-.61-.61-2.438 2.134-1.219-.914-1.219 3.658-.305 2.134-1.829 1.524 2.134 1.219-2.438 2.743.914 1.219-2.134-3.048-.61.305-1.524"/><path d="M251.833 71.717l1.219.914 1.219-.914 2.438.61 3.353-1.219 2.438.914-.61-2.134 3.353-2.134-3.353-2.134-.914-1.524"/><path d="M272.254 73.851l1.524-.305-.305-2.438 2.438-.914 4.572.914 4.267-1.219"/><path d="M242.384 76.899l-.914-1.524-2.438.914 3.962-4.267 5.182-1.219 3.658.914"/><path d="M285.97 98.535h.305"/><path d="M285.97 88.786l-1.524-.305-.914 2.743"/><path d="M281.094 65.621l-6.096 2.743"/><path d="M242.384 65.621h-2.743l-.914-1.524"/><path d="M236.288 64.097h-.305"/><path d="M264.33 78.118l-.914-2.134 1.219-.914-4.267-.61-.61-1.219-5.791.61"/><path d="M265.244 67.755l2.743.61 1.219-1.219 4.572.61 1.829 2.134"/><path d="M221.353 88.481l-4.877-.305"/><path d="M241.774 64.097l-.914 1.219"/><path d="M227.144 89.091l-5.182-.305"/><path d="M221.962 88.786l-.914-.305z"/><path d="M249.699 87.262l-.61-.914"/><path d="M283.532 98.23l1.524-.305"/><path d="M251.223 73.241v-.61"/><path d="M275.912 70.193l-.305-.305"/><path d="M250.004 88.786v-.61"/><path d="M246.651 93.048l1.524-.305"/><path d="M242.079 84.519h.305"/><path d="M280.484 88.786l1.524-3.658 2.134-.305-1.219-1.219h1.219l-1.829-1.219.914-1.829-12.192-.914 1.524 3.353z"/><path d="M282.922 85.128l2.743 1.524"/><path d="M281.398 77.204l2.134 2.134-1.524 1.219"/><path d="M273.778 75.07l-3.048 1.219-.914 2.438-6.096-.305"/><path d="M284.751 66.536h.305l4.572-.914 3.048 1.219"/><path d="M285.361 76.289h.61l4.572 3.353-.305 1.219 4.572.61.914 2.743 8.534.61 5.182-1.829 5.486 1.524"/><path d="M285.97 76.289l3.048-.305 2.438-4.267 3.353-1.829 5.791 1.219 5.486-1.524 5.182 3.962.914 4.572 5.486 1.219"/><path d="M291.762 68.974l2.134-1.829-.914-1.829 1.829-1.219"/><path d="M284.751 69.888l4.572-1.524 4.877 2.134"/><path d="M289.628 94.572l11.582-2.438 6.096.914.914-1.524 1.524 1.219-1.829 2.438"/><path d="M286.275 98.535l.914.61 2.743-3.658-3.353-6.706h-.61"/><path d="M296.638 93.048l-.61-2.438-1.829-1.219 2.134-3.048-2.438-2.134.914-1.524"/><path d="M338.396 64.097l.305.305"/><path d="M317.365 75.07l-4.267-4.877"/><path d="M338.701 64.402l6.096.914"/><path d="M314.317 90.61l-3.658-.305-2.134 1.219"/><path d="M344.492 70.803h2.134l-.305-1.829"/><path d="M344.492 70.803l-1.829.914.305 1.524"/><path d="M345.406 68.364l.305-1.524"/><path d="M308.526 68.669l3.353 1.524"/><path d="M308.526 68.669l-2.743.914"/><path d="M322.242 112.251l1.219.61"/><path d="M313.098 70.193h-1.219"/><path d="M345.406 68.364l.914.61"/><path d="M312.793 105.85v.61"/><path d="M317.67 111.031h1.524"/><path d="M340.225 78.728l-.305.914"/><path d="M317.365 75.07l.914.305"/><path d="M314.622 109.812l.61.914"/><path d="M313.098 107.069l.61.914"/><path d="M309.745 104.021l.305.914"/><path d="M308.83 100.059h1.219"/><path d="M313.707 108.898l.914.305"/><path d="M306.697 97.62l.305.914"/><path d="M316.146 110.422h.61"/><path d="M310.05 102.497v.914"/><path d="M307.306 96.401l-.61.61"/><path d="M310.964 101.278l-.305.61"/><path d="M294.2 89.396l-6.096 1.524"/><path d="M285.666 86.652l1.219.61-.914 1.219"/><path d="M344.797 65.316h.305"/><path d="M345.711 66.84v-.305"/><path d="M345.102 65.316l.61 1.219"/><path d="M186.606 90.61h6.401l1.524 1.524-3.048 1.829-2.134 4.877-1.829.305 1.219 2.134-3.658 7.01"/><path d="M216.476 88.176l-5.182-2.438"/><path d="M369.79 58.611l-3.353 3.353 1.829 2.134"/><path d="M367.962 64.097l-3.962-1.219"/><path d="M388.078 60.44l-.305.914-2.743-.61-.61 1.524-3.658-1.524.914 1.524"/><path d="M393.565 61.354v1.219l-4.572-2.134"/><path d="M374.972 59.525l-1.219-.914-.914.914-3.048-.914"/><path d="M363.999 62.878l.305 1.219"/><path d="M381.678 62.268l-4.877-2.743"/><path d="M376.801 59.525h-1.829"/><path d="M388.993 60.44l-.305.305"/><path d="M388.688 60.744l-.61-.305"/><path d="M390.822 58.001l1.219-.914-1.829-1.829 2.438-.305-2.743-.914v-.61l-1.524-.305-.61-.914 3.962-.61"/><path d="M396.308 60.135l.61 1.524-3.353-.305"/><path d="M426.483 58.916l3.353 2.438"/><path d="M405.452 51.6l2.134.305-.914-.914 2.134 1.524 1.524-.61 1.524 1.829"/><path d="M395.698 50.381l2.743-.914-.305-.914"/><path d="M413.072 51.905l.61-.914.914 1.219 3.962 1.829"/><path d="M393.565 50.991l2.134-.61"/><path d="M401.185 48.552l3.048 1.829 1.219 1.219"/><path d="M397.832 48.552h3.353"/><path d="M393.565 59.22l-2.743-1.219"/><path d="M411.853 53.734h1.219v-1.829"/><path d="M418.558 54.039l7.925 4.877"/><path d="M392.65 51.6l.914-.61"/><path d="M393.565 59.22l1.829.305"/><path d="M391.736 51.6h.914"/><path d="M396.308 60.135l-.914-.61"/><path d="M444.466 64.097l-1.219-2.743 2.438.914 2.134 1.524.305.305"/><path d="M449.953 64.097l-.914-.914-2.743-2.134-3.658-3.658 1.219.914"/><path d="M432.579 61.659l1.219-.61 5.182 3.048"/><path d="M429.836 61.354l.61.305-1.219-1.524 3.353 1.524"/><path d="M443.857 58.306l2.743 1.524 4.572 3.658-.914-.914 1.524 1.219"/><path d="M360.951 109.812l-2.438.61-9.449-.61.61 2.134-2.438 1.219"/><path d="M360.342 123.223l3.658-2.134"/><path d="M368.266 107.679l-7.315 2.134"/><path d="M424.959 109.203l-3.048-2.134-6.096-1.524-1.524-1.219-4.572.61-1.219 2.438-2.134.305"/><path d="M413.986 89.7l-4.877-1.829-.914.61 1.829.914-1.829-.61-1.524 2.134 1.524 2.438-3.048-.305"/><path d="M360.646 92.439l3.962-.305 3.658 2.438 1.219 2.743 4.267 1.829"/><path d="M373.753 99.144l5.791 3.048 4.267-3.353 1.829 1.219-.305 2.134 3.353 1.524"/><path d="M368.266 64.097h.305-.61"/><path d="M380.458 101.887l-.914-2.438-3.658-1.524.914-.914-4.572-3.962"/><path d="M368.876 108.593l1.219-.914 4.572.305 1.219 1.219 1.219-.61"/><path d="M375.582 90.915l-5.182-2.743-3.353.305-2.438-1.219"/><path d="M367.047 69.584l.914 1.219 4.572 1.219 2.438 2.134-1.219.305 2.743 1.219"/><path d="M405.147 93.048h-1.524l-5.791-3.658-3.658 2.134"/><path d="M364.609 87.262l-9.449-2.134-1.829.61"/><path d="M372.229 93.048l4.877.914-1.524-3.048"/><path d="M375.582 90.915l5.486 2.438 1.219-2.134"/><path d="M363.999 121.09l3.353-2.134-1.219-7.315 3.048-2.743"/><path d="M373.753 98.839l3.353.61 2.438 2.743"/><path d="M364.304 64.097l.61 4.877 2.134.61"/><path d="M372.229 93.048l-4.877.61"/><path d="M405.147 93.048l-7.62-12.802"/><path d="M397.527 80.252l5.182-2.134 3.353 1.524"/><path d="M368.266 107.983l.914.914"/><path d="M476.775 121.699l.914 1.524-2.134-3.962-2.134-1.219-2.438-3.353-4.572-1.219-2.438-3.048-4.267-1.829.914-1.219-3.353-3.962-2.438-.305-2.438-3.353-.305-3.962 3.353.61-.914-2.438h2.134l.914-3.048"/><path d="M448.734 80.556h-.305l.305-.305"/><path d="M440.199 136.939l.914-4.267-.914-1.524-2.743-.305-3.658-6.401.305-1.829-1.524-.61-.914-1.829.914-.61-1.524-5.182 4.572 1.524v-2.438l2.743-1.524-.914-3.353 1.524-1.829 7.01 2.438 1.219-1.524 1.219.914.61-5.182 2.743 2.134 3.353 4.877 1.524-3.048 3.962.61"/><path d="M460.316 108.898l-4.877 2.134v1.524l3.048 3.353-.305 2.743 1.219 1.829h-2.743l2.743 3.048-1.524.914 1.829 4.572-5.182 3.048.914 4.877"/><path d="M477.69 123.223l2.743 2.438-.305 1.524-1.524-.61 3.353 4.877.305-.305 3.048 2.134"/><path d="M472.813 130.539l1.219 2.134v4.267"/><path d="M431.055 114.384l-2.438-3.962h-2.134l-1.524-1.219"/><path d="M419.778 93.353l-3.658-.61-1.829-2.743-.305-.305"/><path d="M470.679 114.689v3.353h-6.096l1.219 2.438 1.219.305.914 3.048 4.877 3.658"/><path d="M441.418 107.679l-1.219-2.438-15.24-7.62"/><path d="M445.381 94.267l-2.438-2.134.61 1.524-3.658-1.524.61-2.134-.914-.305"/><path d="M442.942 96.096l3.658 1.219 1.524-2.438-2.743-.61"/><path d="M439.59 89.7l-.61-1.524.914-.61 4.572 1.524-1.524-2.134.61-.914"/><path d="M447.514 87.872h6.096l2.743 1.524"/><path d="M444.771 97.011l-2.743 1.219.914 1.219 3.048.305"/><path d="M436.542 93.963l.305.914 1.829.61-.914-2.743 1.829-3.048"/><path d="M445.99 99.754l1.524-.61 2.743 1.524 2.134-.914"/><path d="M438.98 100.363l2.438 1.219 2.438 3.048.914 3.658"/><path d="M440.809 97.011l-.914-2.134 1.219.61.61-1.524 1.524 1.219"/><path d="M438.98 100.363v-1.219l2.134.305-.305-2.134"/><path d="M424.959 97.62l-3.658-3.962-1.524-.305"/><path d="M416.12 85.433l6.401-.914 4.267 3.048.305-.61 1.219 2.134"/><path d="M472.813 127.491v3.048"/><path d="M443.552 86.043l3.962 1.829"/><path d="M445.076 97.315l1.219.914z"/><path d="M410.329 81.471l5.791 3.962"/><path d="M428.617 89.091l.914 1.524h.914l3.353 3.048"/><path d="M433.798 93.658l1.829-.305"/><path d="M443.247 95.182l-.305.914"/><path d="M440.809 97.011h-.914"/><path d="M436.542 93.963l-.914-.61"/><path d="M440.809 97.315h-.305"/><path d="M457.573 90.915v-.61l-1.829-2.134-.61-1.829-5.182-5.182-1.219-.61"/><path d="M448.734 80.252l1.219-1.219 1.829.61-1.524-1.524-4.267-5.182 3.353 1.219.305-.914-4.267-4.267.61-.305-1.829-1.829.914-.305 2.134 1.829 4.572 2.134 3.962 3.048 5.791 5.791 3.048.914 3.658 2.134 5.486 5.486 2.134.305"/><path d="M445.076 66.536l-.61-2.438"/><path d="M448.124 64.097l2.438.61-.61-.61"/><path d="M485.31 133.282l3.353 2.743v.914"/><path d="M438.98 64.097l1.829 1.219 1.524.305-.305-.914 2.743 2.134"/><path d="M456.354 89.396l.61.61"/><path d="M488.662 136.025l1.524-.61 1.829 1.524"/><path d="M475.861 88.176h.61l4.572 3.962-2.438-3.048"/><path d="M449.648 157.361l-.61-4.572 3.353-1.524-.305-2.134-2.134-.61-1.524-4.267-3.048-1.219-5.182-5.486v-.61"/><path d="M455.439 136.939l.305.61-5.182 1.829-10.363-1.829"/><path d="M474.032 136.939l-.305 8.534-2.134 1.219-1.829-1.524-.61 3.658.61 1.829 2.134.914.61 2.438 2.134 1.219 3.048 5.486-4.572.61"/><path d="M473.118 161.323l-1.524-.305-.61 3.048"/><path d="M518.228 172.906l-2.743-7.01-1.524-1.829-.914-2.743-1.524-1.829v-2.438l-2.134-2.438-1.219-3.353 2.438 2.438v-.914l2.134 4.267 3.658 1.524.914 5.182 1.829 3.353-.914-3.353h.305l4.877 10.668-.61-.61.305 1.219"/><path d="M542.917 224.722l-.914-6.706-2.438-9.754-2.134-5.486-1.219-6.096v.61l-3.962-10.363.305-.305-1.829-5.486.61.305-.61-3.048.305.305"/><path d="M488.662 136.939l-.305 1.219 1.524 3.658 7.62 5.486h2.134l3.353 3.353 3.048.914"/><path d="M509.389 139.683l1.219 1.219-.305-1.829.61.914.61 1.524v-.61l.914 1.219.305 1.524 1.524.914.914 2.438 1.219 2.134-1.219-.61.61 2.743 4.572 11.887-1.219-.914 3.048 7.925v1.219"/><path d="M513.961 144.255l-.61-1.219.914 1.219 1.829 3.048.305-.305 1.829 3.353 1.829 4.267.914 3.048 2.134 5.182.61-.914 1.829 4.267.914.914.914 3.658.914.305"/><path d="M506.036 151.57l2.134.61-3.048-6.706v-.61l3.658 5.486 3.353-.61-2.743-4.267-2.743-1.524.61 4.267"/><path d="M509.694 146.388l.914-.61-.914-3.048-.305-3.048"/><path d="M492.015 136.939l10.058 8.839-.305-1.219 3.353 1.219"/><path d="M528.286 171.077v.305"/><path d="M542.917 226.551v-1.829"/><path d="M529.506 173.211l.914 1.829h.305l-2.438-5.791.305.305-.61-1.524.914 1.524-.61-1.829.61 1.524-1.219-3.962.914 2.134.305.305 1.524 3.658v.61"/><path d="M535.906 188.755l-.305-1.219.305.305 1.524 4.267 2.438 7.925 1.829 7.01.305.914-.305-1.829-.305-.61"/><path d="M528.591 169.553l1.524 3.353v-.305l.61 2.134.914 1.829.61.914-.61-1.524.61 1.219.305 1.219.914 1.829.61 1.829-.305-.305"/><path d="M543.831 218.626l-2.134-8.839-.61-3.658h.305"/><path d="M533.773 181.745l.61 1.829 1.219 2.438 3.048 9.449"/><path d="M531.639 179.611l.914 2.743h.61l2.743 8.839.305.305"/><path d="M544.441 218.626v.305l.914 3.962-.305-.914.305 2.438"/><path d="M538.65 195.461l.61 1.829"/><path d="M529.201 172.601l.61.914 1.219 5.182.61.914"/><path d="M544.136 216.187l.305 1.524"/><path d="M536.211 191.499l-.61-3.048.61 1.829-.305-1.524"/><path d="M541.393 205.519l.305.61-.305-.61"/><path d="M545.355 224.417l.305 1.219-.305-.914.305 1.524"/><path d="M528.286 171.382l1.219 2.438"/><path d="M529.201 172.601l.305 1.219"/><path d="M544.441 217.711v.914"/><path d="M282.313 259.469l-1.524 3.048"/><path d="M545.965 243.315h.305"/><path d="M542.917 228.684v-2.134"/><path d="M546.27 243.315h.305l-.305-1.219.61.914.61 4.267.305-.61-.305-2.438"/><path d="M243.603 136.939l-.305-.305 3.962-2.743.61-3.962 5.486-3.048v-2.743"/><path d="M244.213 136.025l-1.219-7.62-2.743-1.829-2.743-5.486 3.353-3.048.61-7.01 1.829-1.829"/><path d="M358.208 136.939h.305l1.524-2.134-4.877-3.962 8.23-3.048-3.048-4.572-6.401 4.267-4.877-1.829"/><path d="M308.221 130.234l-1.219 6.096.305.61"/><path d="M344.492 131.453l3.048 5.486"/><path d="M347.54 129.319l-.305 1.829 2.134-.305.305 1.524-.61 4.572"/><path d="M348.759 125.662l-1.524 3.048"/><path d="M363.39 127.795l2.743 1.219"/><path d="M346.626 124.443l1.829-.61"/><path d="M344.797 132.063l.61-1.524"/><path d="M373.753 99.144l-2.134.914 3.048 3.962-.305 1.524 6.401 7.315 3.658.914-.914 7.01 3.658 3.962 5.486 2.438 2.134 2.438.61 3.353h1.219l.61 1.829 2.438 2.134"/><path d="M366.133 129.015l15.24 6.401.305 1.524"/><path d="M397.527 136.939h-3.048"/><path d="M183.253 136.939l9.144-3.962v-3.048l3.962-1.524h6.401v-10.668l-1.524-1.219"/><path d="M190.568 113.47v-.305"/><path d="M288.409 173.515l-17.678-8.839-7.925 3.962-3.048-2.438-6.706-1.524-1.524-3.353-5.791-1.524-3.353-6.706 2.134-1.524.914-5.486-1.829-9.144"/><path d="M213.428 201.557l3.353-4.877 1.219-12.497-4.267.914v-3.962l-5.791-1.829-7.315-7.01"/><path d="M268.902 226.551l-2.743-2.438v-7.01l-2.438-3.962"/><path d="M198.493 203.081l.914 5.182 3.353 2.438-1.524 1.524 2.743 1.829 2.438-.305.914 3.962"/><path d="M232.63 176.563l20.422-11.887"/><path d="M213.428 201.557l-15.85 1.524"/><path d="M218 184.183l7.01-1.219 7.62-6.401"/><path d="M263.72 213.139l-2.438-1.219"/><path d="M196.359 221.979v-.61"/><path d="M302.734 222.283l3.048 4.267"/><path d="M371.01 189.365l-4.267 4.267h-1.829l-2.134 20.117-1.829.305-2.438 3.962-.914 5.182-1.219-.914-1.219 1.524v2.743"/><path d="M348.759 139.683l4.572.61 2.134-2.743 2.743-.61"/><path d="M307.306 136.939l1.219 3.048 2.438 40.234h-4.572l.305 2.438-18.288-9.144"/><path d="M306.697 182.659l.61 17.374-4.877.61-4.877 12.802 3.048.914 2.134 7.925-5.486 1.219-2.438 3.048"/><path d="M347.54 136.939l.914 2.134"/><path d="M310.354 171.382h27.432l.61-.914.305.914h7.315"/><path d="M349.064 136.939l-.305 1.829"/><path d="M355.77 166.505l-6.096 5.791-3.658-.914"/><path d="M393.87 226.551l-2.134-3.048 2.438-3.962"/><path d="M399.661 136.939l.61.61"/><path d="M401.794 202.776l.305 2.743h2.134l-.61 1.524-5.182 1.524v2.743l-3.048.914-.61 1.524"/><path d="M431.665 168.334l-.305-5.486 1.524-.61-1.524-3.353 1.524-.61"/><path d="M400.88 143.035l-11.887-3.962-2.438 1.219-3.048-1.219"/><path d="M396.003 192.108l-4.877-.305v3.658l-1.524 1.219"/><path d="M381.678 136.939l.305 1.829 1.524.61"/><path d="M392.955 221.674l-4.877.305-.305-2.438 2.438-4.877 2.743-.914"/><path d="M429.226 152.789l2.438-2.134 1.829 4.267"/><path d="M394.479 136.939l-.914 3.658"/><path d="M411.243 148.827l-6.401-6.401"/><path d="M393.26 140.597l-3.353 1.524-3.353-1.829"/><path d="M424.045 184.793v1.829l6.096 9.144"/><path d="M396.003 192.108l7.925 3.353.61 4.877 7.925-12.192 21.336-7.925.305-8.839-2.438-3.048-11.582-1.219-7.925-10.973"/><path d="M430.75 153.703l1.219 1.829"/><path d="M424.35 155.532l2.134-.61"/><path d="M397.527 136.939l1.219.61"/><path d="M415.206 160.104l.305-.305"/><path d="M131.437 176.868l1.219-2.438h14.63l1.219-7.01 4.572-2.438 2.438-10.973h12.802l2.743-11.582 12.192-5.486"/><path d="M173.804 226.551l-2.134-2.134 1.829-4.572-.61-1.829 4.572-2.438 2.134-5.486 2.134 1.219"/><path d="M146.372 204.3l-7.925-8.839-7.62.61-1.219 2.134"/><path d="M145.458 209.177l2.743 3.353-.305 2.743-15.545-1.219-5.791 1.524"/><path d="M158.259 217.102l1.524 3.048-1.219 1.829 1.524-.305 1.219 3.658-.305 1.219"/><path d="M127.779 209.787l6.096-1.219 4.572 1.829-2.134.914-3.048-1.524-6.401 2.438"/><path d="M174.109 200.947l-16.154-.914-.305 1.219h-5.486l-.914 1.524-2.134-2.743-2.743 4.267"/><path d="M174.109 200.947l.914-3.962-.914-.914 1.524-37.795h7.315l-13.411-9.754"/><path d="M183.862 221.674v4.877"/><path d="M132.351 221.979l1.524-2.438 3.962-1.219-.61-1.829"/><path d="M167.098 223.503l-1.829 2.438-1.829-1.524-2.438 1.219"/><path d="M181.729 211.311l4.877-4.877 1.829.61.305-1.829 5.791-2.438 3.048.305"/><path d="M150.639 217.711l1.524-1.524 3.962-.305"/><path d="M147.896 215.273v1.829l1.524-.914 1.219 1.524"/><path d="M196.359 221.369l-12.802.305"/><path d="M182.948 158.275l17.678 14.021"/><path d="M145.458 204.3l.305 4.877"/><path d="M168.622 225.331l.305-2.134-1.829.305"/><path d="M156.43 214.663l1.829 2.438"/><path d="M171.67 224.417l-3.048.914"/><path d="M153.078 146.693h16.764"/><path d="M138.447 215.883l-1.219.61"/><path d="M156.126 215.883l.305-1.219"/><path d="M138.447 215.883v-1.829"/><path d="M196.359 221.369l-.61-.305"/><path d="M289.323 230.818l-4.877.61.61 1.219-2.438 3.048-4.267.305"/><path d="M289.323 251.239l-2.743-1.524-4.267 3.658.61 4.267"/><path d="M274.083 238.133l-1.219-1.524-4.877 1.524-1.524-4.572-5.791-5.182 1.219-1.829h7.01"/><path d="M282.313 259.469l-.305-2.743-8.534.61-2.134 6.096"/><path d="M274.083 238.133l4.267-2.134"/><path d="M294.81 226.551l-3.658 3.962-1.829.305"/><path d="M324.68 250.02l-9.144-1.524-1.219 1.524-4.267-.305-4.572 2.438-2.438-.914-2.743 3.048-8.23-1.219-2.743-1.829"/><path d="M386.554 260.688v17.678l2.438 3.658"/><path d="M390.517 255.202l-3.962 5.486"/><path d="M183.862 228.989l-2.134-2.134-6.401 1.219-1.524-1.524"/><path d="M161.002 226.551l-.914 2.438 1.219.305.61 4.877"/><path d="M158.259 238.133l.61 2.438-1.524 2.438 4.877 3.353-.61 7.01"/><path d="M138.447 231.123l3.658-3.962 5.182-.61 2.438 4.572-.914 3.658"/><path d="M161.917 234.171l-2.438-.305.914 2.134-1.219 2.134-1.829-.61-2.134 2.134-.61-.914"/><path d="M154.602 238.743l-1.524-5.486-4.267 1.524"/><path d="M183.862 226.551l.305 5.791"/><path d="M150.944 233.561l-5.791 7.62"/><path d="M184.167 232.342l.305 2.743-3.658 7.62 1.829 4.877"/><path d="M182.643 247.582l-.61 2.134"/><path d="M181.119 249.715h.914"/><path d="M222.267 208.263l3.962 1.219 2.134 3.048 3.962-1.829 8.534 2.743 4.877-2.743 8.23 1.524 5.486-3.048 2.438 6.096 2.134.914-.305 3.353-3.962 2.134-2.438 4.877"/><path d="M197.883 225.331l-.305 1.219"/><path d="M209.466 215.273l3.353 3.353.914 5.182-1.524 2.743"/><path d="M259.453 209.177l-.914-3.658 9.449-10.973 2.438-15.85-3.353-5.182-.914-6.401"/><path d="M200.322 221.979l-.61 2.743 2.438 1.829"/><path d="M207.027 218.626l-4.267.914-1.524 2.134-4.877-.305"/><path d="M207.027 218.626l.305-2.743 2.134-.61"/><path d="M212.818 218.626l2.743-8.534 6.706-1.829"/><path d="M197.883 225.331l-1.524-1.524"/><path d="M196.359 223.807v-1.524"/><path d="M196.359 222.283v-.305"/><path d="M289.323 307.932l-2.134-.305-.914 4.572-8.23.61-3.353-4.267-1.829-6.096-16.154-.305"/><path d="M257.319 226.551l-8.23 16.154-1.829.61-2.743-3.353-3.658 1.829-4.572 4.572-1.524 5.486"/><path d="M247.87 263.736l9.144-.305-.305 4.877 5.182-.61.914 2.438-2.743 4.877 3.048 2.134v3.658l-1.829 5.182-1.829-1.829-1.219 1.524-2.438-.305-1.524-2.438-.914 2.438h-4.267l1.829 6.096-2.134-.61-1.829 2.134"/><path d="M280.789 262.517l-2.438 14.326-7.315 7.62-1.219 8.534-6.096 4.572-1.219-3.048-4.572 3.048-3.048-2.438-3.658 3.048"/><path d="M267.987 238.133l-5.182 7.01 3.048 10.363 4.877 4.877.305 5.486-7.62-2.134h-6.096"/><path d="M197.578 226.551l-.61 2.438 1.524.305v13.411"/><path d="M212.209 226.551l-2.134 4.267-1.524.305-.61 5.486"/><path d="M240.86 262.822l7.01.914.305 5.486-8.839.305"/><path d="M202.15 226.551l.914 4.572.61 13.106"/><path d="M256.405 296.35l-3.048 1.829.305 3.353-1.524.305"/><path d="M207.637 243.619l.305-7.01"/><path d="M256.71 302.141l-3.658.914"/><path d="M200.931 245.143l-2.438-2.438"/><path d="M203.674 244.229l-.914.305"/><path d="M331.081 314.638l-2.743 3.658.914 3.353"/><path d="M299.077 321.648l-1.524-2.743.305-10.058-8.534-.914"/><path d="M305.782 226.551l.61.61-.61 5.486h3.353l-.305 1.829 5.182 2.134-.305 1.829 5.791 3.962.305 2.743 3.658 1.829 2.743 5.182 3.048 1.524 5.486-1.829 6.096 5.486-.61 5.182 2.438 1.524-6.096 6.096-1.829 10.668 5.486-1.829h15.24l15.85 9.449v2.438l7.01 5.486"/><path d="M355.16 226.551l-.305 6.706-3.962.61-.61 3.048 3.048.61 4.572 4.572 3.048 6.401 2.438.305.61 3.658 4.877.914 4.877 3.658 6.401.914 1.829-1.524"/><path d="M351.198 321.648l-1.829-2.743 6.096 1.524.61 1.219"/><path d="M332.91 290.254l.914 5.182h1.524l5.182-7.01-1.829-.61.61-2.134-2.743-.61-1.219 2.438-3.048-.914.61 3.658"/><path d="M333.824 295.435l.61 8.839 5.182 8.839-8.534 1.524"/><path d="M363.694 252.154h-7.01l-3.962 3.962-5.791 1.219-4.877-1.219-1.524 1.219"/><path d="M355.16 253.983l4.267 8.23.305 3.962-2.134 2.743"/><path d="M339.615 313.114l9.754 5.791"/><path d="M339.31 285.682l1.524-1.524-1.829-4.877"/><path d="M356.684 252.154l4.267-2.134 1.829 2.134"/><path d="M333.214 282.329l-1.219 4.877"/><path d="M357.598 268.918l-2.438 4.267"/><path d="M355.16 272.88l-.305 6.096"/><path d="M334.738 280.805l-1.524 1.524"/><path d="M381.982 256.421l3.353-2.743 4.877 1.524 7.62-4.572h5.486l11.582-14.63h-3.962l-15.24-6.706-1.829-2.743"/><path d="M288.714 358.529l-4.877-.305-2.134-2.134-20.422.305-2.743-2.134-7.315 1.219"/><path d="M288.409 376.817l-.305 8.839"/><path d="M287.799 404.859l-3.658 2.134-3.962-.305-3.353-.61-1.524-3.048-2.438 2.438"/><path d="M288.104 396.324l-.305 8.534"/><path d="M264.025 379.865l1.219 2.438-1.219-.305"/><path d="M329.252 321.648l.61 3.353-1.829 3.962 2.743 3.962 3.658-.914-.305 6.096-3.658-.305-7.925-8.534-2.134 2.134-3.353-.61-3.048-1.219v-2.134l-4.877.914-1.219-2.438-8.23 1.829.305-4.267-.914-1.829"/><path d="M373.448 328.354l-2.134-.61-2.438 2.134-7.01-1.524-5.486.914-1.219 3.048.61 5.182 5.182 7.01-.914 5.486-3.048 2.438.305 2.438-3.962-5.486 1.829-6.096h-3.962l-3.962-4.572 1.829-4.572 2.438-1.219-.914-7.01 1.829-1.524-1.219-2.743"/><path d="M356.074 321.648l1.829 7.62"/><path d="M312.488 357.919l7.925.914 3.962-4.572 4.267-1.829.914-2.743 6.706-1.524-.61-3.048 13.716-4.572"/><path d="M295.114 359.139l-6.401-.61"/><path d="M311.878 392.667l-3.658.914-7.01-2.134-4.572 5.791-5.791.914"/><path d="M304.563 357.31l-6.706-6.706.61-14.63h9.144l.305-10.058"/><path d="M303.649 358.834l-10.363 1.524-.61 16.459h-4.267"/><path d="M288.104 385.656v3.353l2.743 3.048v6.096"/><path d="M307.916 356.7l3.658.305 4.572 8.839 6.706 4.572"/><path d="M315.841 388.399l3.353-4.877 10.363-5.791"/><path d="M324.07 411.259l1.219-.305 1.524-2.438-2.743-3.048"/><path d="M337.786 378.646l2.134 9.144-.61 5.182-.914 1.524-3.048-.305-1.829 3.658 2.743 2.134h1.829l.305-2.134 3.658.305"/><path d="M343.273 374.074l.305-3.353 2.743-2.743-.914-4.877 1.524-2.438"/><path d="M336.262 348.166v1.524l11.278 3.353v3.048"/><path d="M303.649 358.834l1.524 2.438 7.315-3.353"/><path d="M322.851 370.111l.914 4.877 5.182 2.134"/><path d="M329.557 377.731l8.23.914 5.486-4.572"/><path d="M373.753 328.354l6.706-3.353"/><path d="M324.07 405.468l-4.267 1.219-3.353 3.048"/><path d="M288.104 389.009v7.315"/><path d="M347.54 356.091l-.61 4.572"/><path d="M307.916 356.7l-13.106 2.438"/><path d="M316.45 409.735l.914 1.524"/><path d="M311.878 392.667l1.524-3.658"/><path d="M356.684 331.402v-.305z"/><path d="M339.006 398.153l-.305-3.962"/><path d="M315.841 388.399l-2.438.61"/><path d="M328.947 377.122l.61.61"/><path d="M380.458 325.001l1.829-.914"/><path d="M318.584 413.088l2.134.914 1.219-2.134 2.134-.61"/><path d="M317.365 411.259l.305 1.219"/><path d="M318.584 413.088l-.914-.61"/><path d="M38.778 411.259l.305.914 2.743 4.572 7.62 11.582 2.743 3.962 2.134 3.353 2.134 3.048 5.182 6.401 10.668 12.802.61.914 7.62 7.62.61.914 3.048 3.048 3.658 3.353 2.743 2.438 4.572 4.267.61.61"/><path d="M46.702 411.259l.305.914 4.877 9.144"/><path d="M60.723 426.499l-1.524-2.438-.61-1.524-2.438-2.743-5.182-4.877v.914l-3.048-3.962-.914.305"/><path d="M51.884 421.318l4.267 7.01"/><path d="M102.176 486.545l-.305-.305 3.353 2.743 1.829 1.219"/><path d="M109.796 492.031l8.839 6.401"/><path d="M107.053 490.203l1.829 1.219"/><path d="M286.275 46.419l2.438-.914h7.62l4.877 2.134"/><path d="M300.601 49.467l-.61 2.438-6.401.305"/><path d="M312.793 47.638l-7.925-1.219"/><path d="M301.21 47.638l.914.914-1.524.914"/><path d="M303.039 47.333l-1.829.305"/><path d="M304.868 46.419l-1.219.914"/><path d="M303.649 47.333h-.61"/><path d="M393.565 50.991l2.134-.61"/><path d="M375.582 90.915l-5.182-2.743-3.353.305-2.438-1.219"/><path d="M364.609 87.262l-9.449-2.134-1.829.61"/><path d="M372.229 93.048l-4.877.61"/><path d="M441.418 107.679l-1.219-2.438-15.24-7.62"/><path d="M416.12 85.433l6.401-.914 4.267 3.048.305-.61 1.219 2.134"/><path d="M411.243 148.827l-6.401-6.401"/><path d="M396.003 192.108l7.925 3.353.61 4.877 7.925-12.192 21.336-7.925.305-8.839-2.438-3.048-11.582-1.219-7.925-10.973"/><path d="M430.75 153.703l1.219 1.829"/></g><g stroke="#000" stroke-width=".294" stroke-opacity=".467" fill="none"><path d="M274.815 549.484c14.43-1.229 22.017-17.722 27.434-29.872 13.936-32.554 19.021-65.852 24.386-99.982 9.257-70.721 10.949-144.389 7.011-216.732-3.497-49.748-8.891-99.543-21.826-145.641-6.469-19.366-12.294-41.934-29.385-54.318-2.39-1.096-4.729-2.248-7.621-2.134"/><path d="M274.815 549.484c36.24.025 68.896-15.405 96.019-39.017 41.472-37.166 67.305-90.936 79.864-144.481 14.669-61.085 14.079-128.301-1.829-188.989-13.948-53.718-41.258-107.515-84.74-142.655-25.974-20.765-56.137-33.46-89.313-33.531"/><path d="M275.112 549.484c50.537-.008 99.27-15.417 141.742-43.59 42.545-29.014 76.242-69.974 97.094-118.288 19.45-45.622 26.675-95.473 21.177-145.384-5.654-47.664-23.593-95.145-52.734-134.427-27.399-37.624-64.456-67.53-108.212-86.57-31.519-13.362-64.732-20.364-99.372-20.424"/><path d="M274.507 549.484c-53.412.039-105.616-16.681-149.97-47.247-44.98-31.509-79.608-76.169-99.372-128.332-16.144-42.946-21.381-89.866-15.546-135.955 5.781-42.181 21.531-83.995 45.804-119.96 32.307-47.155 79.537-84.379 134.344-102.867 27.27-9.57 55.77-14.229 85.045-14.327"/><path d="M274.815 549.484c-37.567.09-72.005-14.321-101.506-37.188-30.967-25.058-54.898-59.084-71.57-96.807-22.726-53.058-31.265-110.469-27.192-169.003 4.298-52.43 19.066-103.605 46.943-149.365 21.228-33.192 49.586-62.819 85.35-80.169 20.906-10.302 43.813-16.095 67.976-16.155"/><path d="M274.815 549.484c-19.756-1.032-31.407-20.108-40.237-35.97-12.479-25.02-18.977-49.245-25.3-76.205-13.716-66.322-17.515-136.202-14.632-205.754 3.072-54.712 9.671-109.546 25.91-160.333 8.212-23.268 18.129-50.481 39.322-65.841 4.715-2.684 9.458-4.58 14.937-4.572"/><path d="M234.267 512.897c59.312.089 118.544-.042 177.713-.305"/><path d="M137.639 512.599h43.59l.61.305h52.43"/><path d="M204.698 412.308h307.564"/><path d="M37.357 412.308h167.351"/><path d="M193.73 275.142h355.427"/><path d="M.473 275.142h193.257"/><path d="M204.698 137.966h307.564"/><path d="M37.357 137.966h167.351"/><path d="M234.267 37.683h177.713"/><path d="M137.639 37.683h96.629"/></g><path d="M549.192 274.985c1.494-111.81-73.218-219.51-178.6-257.05-98.938-37.903-218.41-11.604-291.53 65.308-75.217 74.634-98.988 194.42-59.201 292.44 38.902 102.12 143.8 174.18 253.12 173.48 112.42 2.415 221.25-72.393 258.93-178.45 11.367-30.545 17.349-63.119 17.271-95.723z" stroke-miterlimit="10" stroke="#aaa" stroke-width="1.523" fill="none"/><path d="M310.712 169.115c-.095-1.129-.492-7.726-.882-14.659-.66-11.729-.922-14.664-1.426-15.937-.187-.472.329-.495 9.394-.425l9.592.075.495 3.824c.457 3.528 2.493 22.376 2.93 27.122l.189 2.054h-20.118l-.173-2.054z" fill="none"/><path d="M348.072 171.575c-.874-.242-2.858-.395-5.178-.398-4.26-.006-4.57-.17-3.442-1.817.569-.83.896-.996 2.595-1.317 1.069-.202 2.017-.485 2.106-.629.185-.299-1.086-4.737-1.357-4.739-.098-.001-.289 1.104-.425 2.455-.273 2.715-.072 2.487-2.808 3.189-.964.247-1.244.496-1.767 1.573l-.622 1.28h-5.628l-.174-1.77c-1.257-12.816-3.066-29.027-3.431-30.74l-.137-.644 5.174.077 5.174.077.4 1.497c.331 1.237.804 1.926 2.73 3.972 2.024 2.15 2.878 3.429 6.495 9.728 3.484 6.067 4.37 7.406 5.417 8.191.864.648 1.143 1.006.899 1.156-.272.168-.2.666.313 2.173l.666 1.955-2.606 2.518c-1.433 1.385-2.69 2.538-2.793 2.562-.102.024-.824-.133-1.603-.349z" fill="none"/><path d="M307.732 136.965c-.254-.615-.214-1.316.193-3.328l.515-2.549 3.381.108c2.945.094 3.927.265 7.608 1.322l4.226 1.214 1.485-.657 1.485-.657.163 1.176c.09.647.246 1.845.348 2.663l.184 1.487h-19.266l-.322-.779z" fill="none"/><path d="M327.802 137.695c0-.022-.153-1.205-.339-2.629-.186-1.424-.342-2.659-.345-2.745l-.006-.155 1.908-.794 1.908-.794 1.669.143c.918.079 1.737.153 1.82.164l.152.021.459.917c.451.901.461.917.557.9.054-.01 1.906-.289 4.116-.621s4.02-.606 4.023-.61l.127-.377.122-.37.242.405c.133.223.27.429.305.458.035.029.722 1.24 1.527 2.691 1.222 2.202 1.591 2.901 1.789 3.39.014.035-.956.044-4.782.044h-4.8l-.146-.215-.161-.201.054.215.069.201h-5.132c-3.778 0-5.132-.011-5.132-.04z" fill="none"/><path d="M344.152 144.725l-2.263-1.668-1.692-2.478c-.93-1.363-1.693-2.49-1.694-2.504-.001-.015 2.135-.023 4.748-.018l4.75.009.211.494c.21.49.228.604.096.604-.031 0-.332 1.138-.952 3.6-.498 1.98-.914 3.607-.924 3.615-.009.008-1.036-.736-2.281-1.654z" fill="none"/><path d="M164.632 224.672c-.428-.363-.844-.636-.973-.638-.124-.002-.583.175-1.019.395-.436.219-.812.398-.836.398-.024 0-.298-.762-.608-1.694-.603-1.81-.705-1.96-1.25-1.84-.161.035-.293.037-.293.003 0-.034.157-.295.349-.579.192-.285.349-.575.349-.645 0-.07-.341-.81-.758-1.645-.845-1.693-2.535-4.115-2.801-4.013-.079.03-.225.055-.324.055-.135 0-.212.127-.301.498-.066.274-.15.498-.187.498-.037 0-.894.067-1.905.149l-1.838.149-.673.668c-.596.592-.688.65-.799.506l-.474-.61c-.45-.579-.713-.63-1.32-.258l-.473.29.004-.821c.002-.451.066-1.335.141-1.964.095-.8.105-1.201.034-1.335-.056-.105-.633-.837-1.281-1.625-.725-.883-1.157-1.489-1.123-1.578.056-.145-.121-3.592-.226-4.422-.046-.363-.032-.423.077-.333.073.06.286.102.472.092.326-.017.385-.09 1.541-1.892l1.202-1.875.252.288c.139.159.555.678.925 1.155.569.732.717.867.96.867.249 0 .341-.091.701-.697l.414-.697h2.669c2.988 0 2.914.018 3.052-.723.038-.206.105-.397.148-.423.043-.027 3.613.153 7.932.399 6.925.394 7.866.43 7.964.299.061-.082.162-.148.224-.148s.114-.026.114-.059c0-.032.202-.932.448-2 .247-1.068.448-1.962.448-1.988 0-.026-.205-.266-.456-.534l-.456-.488.703-17.611c.387-9.686.731-18.07.765-18.632l.062-1.021h6.848l8.294 6.578c6.056 4.803 8.302 6.639 8.324 6.803.016.123-.173 1.992-.42 4.154-.662 5.781-1.468 13.797-2.058 20.463-.286 3.232-.532 5.892-.548 5.911-.015.019-.465-.013-1-.071l-.972-.106-2.894 1.216c-1.592.669-2.967 1.289-3.055 1.377-.089.089-.194.421-.233.738-.11.882-.076.859-.871.588-.387-.132-.801-.214-.921-.184s-1.262 1.1-2.539 2.377l-2.321 2.323-.932-.538c-1.281-.74-1.287-.738-1.882.794l-1.059 2.718-.588 1.506-2.24 1.183c-1.794.948-2.253 1.231-2.304 1.424-.039.148.042.564.209 1.077l.272.836-.82 2.061c-.451 1.133-.853 2.099-.894 2.145-.041.046-.561.232-1.155.413-1.24.377-1.206.397-1.044-.602.088-.544.078-.61-.12-.808-.214-.213-.226-.214-1.112-.062-.493.084-.911.193-.93.241-.018.048-.088.087-.156.087-.067 0-.43.427-.806.949-.376.522-.732.988-.79 1.036-.068.056-.379-.144-.854-.547zm14.861-22.694l.369-.109-.763-.934c-.42-.514-.781-.88-.803-.815-.04.119.146 1.597.242 1.924.054.183.133.178.954-.065z" fill="#346733" stroke="#346733" stroke-width=".027"/><path d="M197.102 202.322c0-1.663 2.776-29.346 3.021-30.121.016-.052.901.738 1.965 1.755l3.905 3.729 1.969 1.881 1.218.381c.67.209 1.924.604 2.787.878l1.569.497v1.875c0 2.458-.176 2.321 2.296 1.789 1.005-.216 1.854-.381 1.888-.366.034.015-.199 2.686-.517 5.935l-.578 5.908-1.597 2.328-1.597 2.328-.42.057c-.974.131-15.013 1.448-15.44 1.448-.454 0-.468-.009-.468-.302z" fill="#346733" stroke="#346733" stroke-width=".027"/><path d="M309.062 232.845s2.125-4.125 3.125-4.375 2.75-2.5 2.75-2.5l1.25-.25s1.5 2.5 2.75 3 6 .5 6 .5l3 .75 2.25.5 2.25-1.25 1-1.25 1.75-2.25 2.5-.25 2.5 2.25 1.25 1.25 2.5-2.5 2.25-3 .25-4.75 2-1.25.75-1.75 1.25 3 .5 5.75 1.5 1 1.25 2.5.25 2.5 1.156-.969" stroke="#fff" stroke-width=".6" fill="none"/></g><path d="M363.588 206.614l4.405.643 1.229-3.617 2.326 1.624 7.003.328 11.675 9.111" stroke="#fff" stroke-width=".615" fill="none"/></g></svg>